<svg xmlns="http://www.w3.org/2000/svg" width="44" height="44" viewBox="0 0 44 44" fill="none">
  <g clip-path="url(#clip0_3772_43546)">
    <path d="M14.1637 39.2575C13.4866 38.9103 12.8385 38.6337 12.2583 38.2535C11.6982 37.8863 11.2915 37.9584 10.8976 38.4588C10.7777 38.6111 10.628 38.7419 10.4825 38.872C9.83813 39.4479 9.16209 39.5007 8.53743 38.9075C7.34353 37.7739 6.17694 36.6095 5.03991 35.4188C4.39672 34.7453 4.46266 34.0879 5.12989 33.345C6.02896 32.3439 6.02825 32.3443 5.36755 31.1476C4.5953 29.7488 3.97083 28.2857 3.61831 26.727C3.4737 26.0875 3.17885 25.8675 2.53423 25.8647C0.837042 25.8573 0.513735 25.4942 0.513458 23.7675C0.513247 22.4555 0.508727 21.1434 0.515159 19.8314C0.521031 18.6337 0.974885 18.0856 2.16867 18.137C3.15401 18.1794 3.52113 17.799 3.72349 16.8835C4.09325 15.2107 4.85487 13.6764 5.72068 12.2057C5.99622 11.7376 5.96636 11.4487 5.57639 11.0603C4.24833 9.73739 4.26878 9.30485 5.59897 7.97704C6.48799 7.08961 7.36789 6.19288 8.26621 5.31497C9.17552 4.42633 9.85105 4.39252 10.6939 5.32636C11.2873 5.98378 11.7566 6.08074 12.5278 5.58174C13.964 4.6524 15.5651 4.04983 17.2331 3.66433C17.8801 3.51478 18.1447 3.23528 18.1264 2.52805C18.0841 0.889295 18.5039 0.504783 20.1205 0.502858C21.4326 0.501296 22.7448 0.490899 24.0566 0.507939C25.2969 0.524049 25.7629 1.00654 25.7645 2.24598C25.7681 4.98173 25.7664 7.71749 25.7627 10.4532C25.7623 10.7259 25.8109 11.0103 25.6208 11.3361C21.3792 10.1553 17.4992 10.8087 14.2154 13.8813C11.8291 16.1141 10.6324 18.9475 10.7122 22.1912C10.8051 25.9618 12.4519 29.0144 15.5658 31.1932C18.6563 33.3556 22.0521 33.6747 25.5748 32.6425C25.8387 32.9488 25.7615 33.2403 25.7621 33.5096C25.7681 36.2453 25.7691 38.9811 25.7641 41.7168C25.7618 42.9993 25.302 43.4584 23.9836 43.4724C22.6159 43.4868 21.2478 43.4858 19.8801 43.4693C18.594 43.4538 18.0457 42.959 18.1324 41.6928C18.1964 40.7591 17.837 40.4131 16.9786 40.2536C16.0196 40.0755 15.1187 39.6716 14.1637 39.2575Z" fill="#E7854D"/>
    <path opacity="0.12" d="M20.235 13.2611C21.9072 12.9398 23.4638 13.1305 24.9985 13.6458C25.5449 13.8292 25.7818 14.1266 25.7787 14.7414C25.7547 19.5697 25.7553 24.3983 25.7774 29.2267C25.7802 29.8277 25.5658 30.1217 25.02 30.3361C19.4766 32.5137 13.1233 28.2354 13.0823 22.2827C13.051 17.7477 15.6389 14.4566 20.235 13.2611Z" fill="#E7854D"/>
    <path opacity="0.12" d="M43.1724 13.0859C42.1334 14.6789 40.8987 15.2153 39.1531 14.799C38.716 14.6948 38.4136 14.7575 38.0895 15.0331C37.3027 15.7021 36.4928 16.3438 35.7067 17.0136C35.3253 17.3385 34.9 17.5008 34.406 17.5012C32.5909 17.5028 30.7754 17.4859 28.9606 17.5145C28.3164 17.5247 28.1485 17.2397 28.1565 16.6541C28.1873 14.3987 27.9535 14.7887 29.9962 14.7525C31.0012 14.7346 32.0094 14.7058 33.0113 14.7642C33.8512 14.8132 34.5342 14.5921 35.1259 13.995C35.4586 13.6593 35.8289 13.352 36.2181 13.0838C36.6593 12.7798 36.7681 12.4243 36.7307 11.8864C36.6165 10.2423 37.3468 8.99354 38.6672 8.40146C39.931 7.83477 41.5035 8.08685 42.4911 9.01447C43.5559 10.0145 43.8135 11.4734 43.1724 13.0859Z" fill="#E7854D"/>
    <path opacity="0.12" d="M35.1293 29.9981C34.5597 29.3805 33.9222 29.1896 33.1363 29.2211C31.7429 29.2768 30.3454 29.2182 28.9502 29.2431C28.375 29.2534 28.1531 29.0424 28.1603 28.463C28.1901 26.0823 27.9348 26.5199 30.0867 26.4865C31.4541 26.4653 32.8223 26.4953 34.1898 26.4809C34.8357 26.4741 35.3882 26.6496 35.8706 27.092C36.2813 27.4688 36.7458 27.7872 37.1546 28.166C37.9454 28.8987 38.6641 29.3715 39.9345 29.0758C41.6102 28.6859 43.382 30.3395 43.5242 32.0623C43.6946 34.1264 42.3898 35.6929 40.3172 35.9127C38.671 36.0872 36.7185 34.6352 36.787 32.9513C36.8459 31.504 36.1904 30.7424 35.1293 29.9981Z" fill="#E7854D"/>
    <path opacity="0.12" d="M39.8291 25.3959C38.7235 25.285 37.8905 24.8116 37.3282 23.9474C37.0278 23.4858 36.66 23.3563 36.142 23.36C33.8 23.3771 31.4575 23.3448 29.1159 23.3789C28.3889 23.3894 28.1332 23.1526 28.1534 22.417C28.2098 20.3677 27.9442 20.6246 29.927 20.6126C31.9344 20.6005 33.9423 20.5905 35.9494 20.6218C36.5902 20.6318 37.0144 20.4607 37.4127 19.9114C38.3081 18.6768 39.9056 18.2578 41.3025 18.7724C42.681 19.2801 43.5452 20.5619 43.5313 22.0781C43.5179 23.5393 42.5745 24.7841 41.1423 25.2691C40.7321 25.408 40.3199 25.3922 39.8291 25.3959Z" fill="#E7854D"/>
    <path opacity="0.12" d="M31.1202 38.0291C32.7019 35.4412 35.7931 35.7978 37.0536 37.6006C38.0907 39.084 37.8154 41.118 36.3985 42.2605C34.9969 43.3907 32.8376 43.282 31.7408 41.8586C31.1629 41.1086 30.5738 40.9143 29.7067 40.946C28.1623 41.0025 28.1608 40.9617 28.1644 39.4319C28.1672 38.2195 28.1676 38.235 29.4278 38.209C29.9769 38.1976 30.5434 38.3296 31.1202 38.0291Z" fill="#E7854D"/>
    <path opacity="0.12" d="M30.6292 5.78135C30.3899 5.77856 30.2224 5.78113 30.0552 5.7765C27.9405 5.7179 28.1724 6.22399 28.164 3.67471C28.1625 3.21336 28.3652 3.00883 28.818 3.02426C29.0408 3.03186 29.2661 3.00613 29.4869 3.0283C30.4196 3.12196 31.1103 2.90937 31.7719 2.08659C33.0071 0.55019 35.3983 0.60617 36.741 2.03222C38.0918 3.46681 37.9601 5.7606 36.4541 7.02861C34.9479 8.29685 32.6906 8.0256 31.49 6.43325C31.2795 6.1541 31.164 5.75722 30.6292 5.78135Z" fill="#E7854D"/>
  </g>
  <defs>
    <clipPath id="clip0_3772_43546">
      <rect width="44" height="44" fill="white"/>
    </clipPath>
  </defs>
</svg>