<svg xmlns="http://www.w3.org/2000/svg" width="42" height="42" viewBox="0 0 42 42" fill="none">
  <g clip-path="url(#clip0_3772_43494)">
    <path opacity="0.12" d="M19.4535 40.9822C15.2281 40.9821 11.0884 40.9875 6.9486 40.9804C3.26782 40.9742 0.913367 38.6148 0.909218 34.9297C0.903594 29.9335 0.907702 24.9372 0.907637 19.941C0.907634 19.6861 0.907638 19.4312 0.907638 19.1143C14.2956 19.1143 27.6363 19.1143 41.0446 19.1143C41.0575 19.3906 41.0816 19.6659 41.0817 19.9412C41.084 24.9089 41.0863 29.8766 41.0823 34.8443C41.0792 38.6525 38.7582 40.9779 34.9563 40.9811C29.8172 40.9853 24.6782 40.9822 19.4535 40.9822ZM22.3473 27.1289C21.306 28.1798 20.2646 29.2307 19.1173 30.3885C18.3719 29.596 17.686 28.832 16.962 28.106C16.0873 27.2288 15.0063 27.1766 14.2345 27.9324C13.4509 28.6997 13.4916 29.7738 14.3639 30.6601C15.4853 31.7995 16.615 32.9311 17.7561 34.0508C18.6864 34.9636 19.6702 34.9622 20.6045 34.0344C22.9544 31.7009 25.2961 29.359 27.6293 27.0087C28.4543 26.1776 28.4934 25.0886 27.7688 24.3364C27.0254 23.5646 25.9019 23.5998 25.0404 24.4424C24.1629 25.3008 23.3015 26.1756 22.3473 27.1289Z" fill="#FD8B51"/>
    <path d="M39.4766 6.18485C40.5829 7.36431 41.0983 8.70779 41.0858 10.2659C41.0723 11.948 41.0827 13.6303 41.0827 15.362C27.7059 15.362 14.3589 15.362 0.987286 15.362C0.987286 13.2701 0.793874 11.1504 1.03573 9.08166C1.34529 6.43387 3.81868 4.4962 6.5031 4.45123C7.64232 4.43215 8.78213 4.44805 10.032 4.44805C10.032 3.83583 10.0164 3.2483 10.0353 2.66186C10.0706 1.56404 10.8238 0.810511 11.8606 0.81128C12.9116 0.81206 13.6291 1.54085 13.6663 2.66934C13.6849 3.23347 13.6695 3.79872 13.6695 4.40396C15.5241 4.40396 17.3069 4.40396 19.154 4.40396C19.154 3.92709 19.1513 3.47791 19.1545 3.02879C19.1644 1.64145 19.8378 0.822406 20.9745 0.811783C22.1263 0.80102 22.8228 1.61254 22.8368 2.98632C22.8415 3.44122 22.8376 3.89622 22.8376 4.39896C24.6515 4.39896 26.4369 4.39896 28.3233 4.39896C28.3233 3.80691 28.3052 3.21581 28.3273 2.62622C28.3677 1.54647 29.0733 0.831945 30.0882 0.812365C31.1317 0.792237 31.9102 1.53406 31.9547 2.61924C31.9781 3.18837 31.9589 3.75925 31.9589 4.44693C33.0169 4.44693 34.0604 4.46265 35.1032 4.44334C36.7854 4.41221 38.2343 4.95329 39.4766 6.18485Z" fill="#E7854D"/>
  </g>
  <defs>
    <clipPath id="clip0_3772_43494">
      <rect width="42" height="41" fill="white" transform="translate(0 0.5)"/>
    </clipPath>
  </defs>
</svg>