<svg xmlns="http://www.w3.org/2000/svg" width="19" height="19" viewBox="0 0 19 19" fill="none">
  <path fill-rule="evenodd" clip-rule="evenodd" d="M9.61784 1.78981C10.4326 1.78981 11.2171 1.91477 11.9536 2.14611C12.2862 2.25058 12.6405 2.06563 12.745 1.73303C12.8495 1.40043 12.6645 1.04612 12.3319 0.941656C11.4744 0.672309 10.5624 0.527344 9.61784 0.527344C4.62095 0.527344 0.57016 4.57813 0.57016 9.57503C0.57016 14.5719 4.62095 18.6227 9.61784 18.6227C14.6147 18.6227 18.6655 14.5719 18.6655 9.57503C18.6655 7.04417 17.6256 4.75506 15.9513 3.11371C15.7023 2.86966 15.3026 2.87363 15.0586 3.12258C14.8145 3.37153 14.8185 3.77119 15.0675 4.01524C16.5095 5.42893 17.4031 7.39706 17.4031 9.57503C17.4031 13.8747 13.9175 17.3602 9.61784 17.3602C5.31819 17.3602 1.83263 13.8747 1.83263 9.57503C1.83263 5.27537 5.31819 1.78981 9.61784 1.78981Z" fill="black"/>
  <path fill-rule="evenodd" clip-rule="evenodd" d="M15.114 5.76203C15.3606 6.00854 15.3606 6.40822 15.114 6.65473L8.38088 13.3879C8.13437 13.6344 7.7347 13.6344 7.48819 13.3879L4.54243 10.4421C4.29592 10.1956 4.29592 9.79595 4.54243 9.54943C4.78894 9.30292 5.18862 9.30292 5.43513 9.54943L7.93454 12.0488L14.2213 5.76203C14.4679 5.51552 14.8675 5.51552 15.114 5.76203Z" fill="black"/>
</svg>