<svg width="48" height="48" viewBox="0 0 48 48" fill="none" xmlns="http://www.w3.org/2000/svg">
<rect x="0.5" y="0.5" width="47" height="47" rx="23.5" stroke="#FFF8EC"/>
<path d="M28.8538 28.1462C28.9002 28.1927 28.9371 28.2478 28.9622 28.3085C28.9874 28.3692 29.0003 28.4343 29.0003 28.5C29.0003 28.5657 28.9874 28.6307 28.9622 28.6914C28.9371 28.7521 28.9002 28.8073 28.8538 28.8537C28.8073 28.9002 28.7522 28.937 28.6915 28.9622C28.6308 28.9873 28.5657 29.0003 28.5 29.0003C28.4343 29.0003 28.3693 28.9873 28.3086 28.9622C28.2479 28.937 28.1927 28.9002 28.1463 28.8537L24 24.7068L19.8538 28.8537C19.76 28.9475 19.6327 29.0003 19.5 29.0003C19.3674 29.0003 19.2401 28.9475 19.1463 28.8537C19.0525 28.7599 18.9998 28.6327 18.9998 28.5C18.9998 28.3673 19.0525 28.24 19.1463 28.1462L23.2932 24L19.1463 19.8537C19.0525 19.7599 18.9998 19.6327 18.9998 19.5C18.9998 19.3673 19.0525 19.24 19.1463 19.1462C19.2401 19.0524 19.3674 18.9997 19.5 18.9997C19.6327 18.9997 19.76 19.0524 19.8538 19.1462L24 23.2931L28.1463 19.1462C28.2401 19.0524 28.3674 18.9997 28.5 18.9997C28.6327 18.9997 28.76 19.0524 28.8538 19.1462C28.9476 19.24 29.0003 19.3673 29.0003 19.5C29.0003 19.6327 28.9476 19.7599 28.8538 19.8537L24.7069 24L28.8538 28.1462Z" fill="#FFF8EC"/>
</svg>
