<svg xmlns="http://www.w3.org/2000/svg" width="19" height="19" viewBox="0 0 19 19" fill="none">
  <path fill-rule="evenodd" clip-rule="evenodd" d="M9.14641 1.78981C9.9612 1.78981 10.7456 1.91477 11.4822 2.14611C11.8148 2.25058 12.1691 2.06563 12.2736 1.73303C12.378 1.40043 12.1931 1.04612 11.8605 0.941656C11.0029 0.672309 10.091 0.527344 9.14641 0.527344C4.14951 0.527344 0.0987242 4.57813 0.0987242 9.57503C0.0987242 14.5719 4.14951 18.6227 9.14641 18.6227C14.1433 18.6227 18.1941 14.5719 18.1941 9.57503C18.1941 7.04417 17.1541 4.75506 15.4798 3.11371C15.2309 2.86966 14.8312 2.87363 14.5872 3.12258C14.3431 3.37153 14.3471 3.77119 14.596 4.01524C16.0381 5.42893 16.9316 7.39706 16.9316 9.57503C16.9316 13.8747 13.4461 17.3602 9.14641 17.3602C4.84675 17.3602 1.36119 13.8747 1.36119 9.57503C1.36119 5.27537 4.84675 1.78981 9.14641 1.78981Z" fill="black"/>
  <path fill-rule="evenodd" clip-rule="evenodd" d="M5.12921 5.55756C5.37572 5.31104 5.7754 5.31104 6.02191 5.55756L13.1635 12.6992C13.41 12.9457 13.41 13.3453 13.1635 13.5919C12.917 13.8384 12.5173 13.8384 12.2708 13.5919L5.12921 6.45026C4.8827 6.20374 4.8827 5.80407 5.12921 5.55756Z" fill="black"/>
  <path fill-rule="evenodd" clip-rule="evenodd" d="M5.12921 13.5917C4.8827 13.3452 4.8827 12.9455 5.12921 12.699L12.2708 5.55744C12.5173 5.31093 12.917 5.31093 13.1635 5.55744C13.41 5.80395 13.41 6.20363 13.1635 6.45014L6.02191 13.5917C5.7754 13.8382 5.37572 13.8382 5.12921 13.5917Z" fill="black"/>
</svg>