<svg xmlns="http://www.w3.org/2000/svg" width="46" height="46" viewBox="0 0 46 46" fill="none">
  <g clip-path="url(#clip0_3772_43561)">
    <path opacity="0.1" d="M15.0469 0.859318C21.2955 0.856661 27.4658 0.857167 33.6361 0.861141C33.6872 0.861174 33.7383 0.90813 33.8289 0.952535C33.8289 4.00156 33.8276 7.06969 33.8294 10.1378C33.8303 11.694 34.187 12.0444 35.7588 12.0446C38.5427 12.045 41.3265 12.0447 44.1103 12.0447C44.3924 12.0447 44.6744 12.0447 45.0226 12.0447C45.0226 12.3623 45.0226 12.6127 45.0226 12.8631C45.0225 22.133 45.0259 31.4029 45.0198 40.6728C45.0183 42.8998 43.8876 44.4178 41.9369 44.848C41.6596 44.9092 41.3687 44.933 41.0841 44.9332C34.5407 44.938 27.9972 44.9372 21.4537 44.9362C21.3466 44.9362 21.2395 44.9209 20.9772 44.901C24.4476 42.2617 26.4032 38.8743 26.8983 34.6046C28.6368 34.6046 30.3539 34.6047 32.071 34.6046C33.9078 34.6045 35.7446 34.6156 37.5813 34.5993C38.4391 34.5916 38.9919 34.0548 38.9859 33.302C38.98 32.554 38.4224 32.0284 37.56 32.0258C34.0321 32.0154 30.5042 32.0215 27.0562 32.0215C26.5583 30.2854 26.0755 28.6021 25.5744 26.855C25.7808 26.855 26.0534 26.855 26.326 26.855C29.9996 26.855 33.6731 26.857 37.3466 26.8538C38.4086 26.8529 39.0057 26.3624 38.9838 25.5289C38.9628 24.731 38.3832 24.2738 37.3642 24.273C33.0593 24.27 28.7544 24.2642 24.4495 24.2816C23.9268 24.2837 23.5737 24.1483 23.2009 23.7453C20.413 20.7312 16.9469 19.1896 12.8379 19.1074C12.4116 19.0989 11.9849 19.1063 11.4929 19.1063C11.4758 18.8765 11.4458 18.6604 11.4457 18.4442C11.443 13.9958 11.4371 9.54738 11.4465 5.09898C11.4515 2.6888 12.6137 1.30678 15.0469 0.859318ZM37.6979 19.1041C38.7761 18.8607 39.2742 18.1014 38.869 17.2714C38.5666 16.652 38.0126 16.5136 37.3573 16.5149C31.2726 16.5271 25.1879 16.522 19.1032 16.5226C18.9311 16.5226 18.7538 16.504 18.5879 16.5381C17.9179 16.6759 17.5056 17.0887 17.4913 17.7776C17.4762 18.5079 17.8905 18.9532 18.6021 19.0883C18.852 19.1357 19.1172 19.1051 19.3754 19.1051C25.4314 19.1056 31.4874 19.1055 37.6979 19.1041Z" fill="#E7854D"/>
    <path d="M2.68133 27.4923C5.3549 23.1093 10.1365 20.9496 14.9893 21.8976C19.7192 22.8217 23.4046 26.655 24.2289 31.5081C25.258 37.5677 20.9715 43.6529 14.9075 44.7406C8.66065 45.861 2.6031 41.8508 1.37457 35.7691C0.790165 32.8762 1.1907 30.1267 2.68133 27.4923ZM14.0839 35.6951C14.4491 35.3297 14.8143 34.9644 15.1796 34.5991C16.0115 33.767 16.8501 32.9414 17.6735 32.101C18.3721 31.388 18.4297 30.6276 17.8523 30.065C17.288 29.5149 16.5297 29.6007 15.8101 30.2988C15.6042 30.4986 15.4037 30.7041 15.2009 30.9072C13.7859 32.3242 12.3709 33.7414 10.8847 35.2298C10.3685 34.6808 9.91243 34.1644 9.4226 33.6825C8.76014 33.0306 7.98756 32.9774 7.44325 33.5108C6.88369 34.059 6.918 34.8136 7.56732 35.4841C8.32586 36.2674 9.09658 37.0396 9.88077 37.7973C10.587 38.4795 11.2712 38.4747 11.9859 37.7873C12.6684 37.1309 13.3281 36.4508 14.0839 35.6951Z" fill="#FD8B51"/>
    <path d="M37.3919 9.46264C37.0534 9.46264 36.797 9.46264 36.4766 9.46264C36.4766 6.90577 36.4766 4.37974 36.4766 2.08789C38.8705 4.48131 41.3939 7.00408 43.853 9.46264C41.8949 9.46264 39.6845 9.46264 37.3919 9.46264Z" fill="#040404"/>
  </g>
  <defs>
    <clipPath id="clip0_3772_43561">
      <rect width="45" height="45" fill="white" transform="translate(0.5 0.5)"/>
    </clipPath>
  </defs>
</svg>