<svg xmlns="http://www.w3.org/2000/svg" width="44" height="44" viewBox="0 0 44 44" fill="none">
  <g clip-path="url(#clip0_3772_43534)">
    <path opacity="0.12" d="M39.9076 5.14282C40.2461 8.61908 37.8365 11.3111 34.4453 11.313C24.9067 11.3183 15.3681 11.3182 5.82959 11.3106C3.49273 11.3087 1.53528 9.92072 0.74515 7.75202C-0.0446478 5.58421 0.552386 3.24475 2.30797 1.73893C3.29621 0.891288 4.44556 0.447411 5.76414 0.447999C15.3307 0.452264 24.8972 0.447965 34.4637 0.451801C37.272 0.452927 39.4037 2.27738 39.9076 5.14282ZM11.732 6.96748C12.2608 7.56027 12.933 7.69665 13.6375 7.42959C14.2432 7.2 14.6342 6.71608 14.6853 6.03348C14.7437 5.25255 14.4248 4.63934 13.7025 4.35197C13.0169 4.07921 12.301 4.12498 11.7788 4.72936C11.2084 5.38956 11.1118 6.12274 11.732 6.96748ZM5.91751 7.53992C6.67523 7.52516 7.20339 7.14488 7.41988 6.44194C7.62646 5.7712 7.5473 5.10801 6.95851 4.61719C6.35981 4.1181 5.67862 4.06982 5.01424 4.42548C4.28265 4.81713 4.06961 5.50657 4.2348 6.27991C4.4067 7.08463 4.96217 7.49225 5.91751 7.53992Z" fill="#E7854D"/>
    <path d="M39.7089 33.3197C40.8368 35.1608 41.9243 36.9549 43.0298 38.7377C43.6786 39.784 43.7222 40.8495 43.1417 41.9168C42.5438 43.0159 41.6052 43.5603 40.3321 43.5583C34.065 43.5486 27.7978 43.5607 21.5306 43.5498C18.9385 43.5453 17.4485 40.9727 18.794 38.7615C21.9054 33.6482 25.0445 28.5516 28.209 23.471C29.5202 21.3658 32.2975 21.3806 33.6283 23.4911C35.6722 26.7325 37.6629 30.0073 39.7089 33.3197ZM29.8031 34.9067C31.0302 35.9565 32.611 34.9842 32.6403 33.6015C32.6774 31.8445 32.6824 30.0854 32.6361 28.3289C32.6077 27.251 31.8663 26.5779 30.8812 26.5923C29.9209 26.6064 29.2471 27.3393 29.2395 28.4241C29.2274 30.126 29.2444 31.828 29.2359 33.5299C29.2333 34.0278 29.3433 34.468 29.8031 34.9067ZM32.2672 37.9893C31.7364 37.3835 31.0797 37.1658 30.3217 37.4515C29.7082 37.6827 29.3207 38.154 29.2544 38.8219C29.1781 39.5907 29.4924 40.173 30.188 40.5286C30.9002 40.8926 31.5505 40.7452 32.0904 40.2026C32.71 39.5799 32.827 38.8603 32.2672 37.9893Z" fill="#E7854D"/>
    <path opacity="0.12" d="M12.3976 14.7339C19.7245 14.7341 26.9674 14.7312 34.2103 14.7358C37.241 14.7378 39.341 16.5063 39.9263 19.4722C40.1845 20.7805 39.4749 23.4033 38.0886 24.1247C37.5474 23.2637 37.0179 22.384 36.4523 21.5282C34.655 18.8087 31.3347 17.7912 28.343 19.0415C27.0961 19.5626 26.1002 20.392 25.3901 21.5521C24.6896 22.6966 23.9694 23.8295 23.2928 24.9879C23.0105 25.4712 22.6761 25.7107 22.0926 25.7089C16.7513 25.6925 11.4098 25.7253 6.06882 25.6858C3.56986 25.6673 1.70068 24.5204 0.781849 22.1471C-0.0248107 20.0635 0.379627 18.1233 1.89215 16.4685C2.96704 15.2925 4.35803 14.7545 5.93776 14.7398C8.06289 14.72 10.1883 14.7342 12.3976 14.7339ZM14.4777 19.369C13.7852 18.5301 12.9918 18.2976 12.2302 18.7105C11.5571 19.0755 11.1713 19.9276 11.37 20.6104C11.6457 21.5579 12.547 22.1026 13.4131 21.845C14.4893 21.525 14.8998 20.6608 14.4777 19.369ZM6.97045 18.9484C6.30157 18.4194 5.5943 18.3712 4.87963 18.8283C4.22932 19.2442 4.10255 19.8902 4.23041 20.5942C4.35948 21.3049 4.85214 21.6963 5.51775 21.8702C6.23013 22.0562 6.79881 21.7348 7.19079 21.1941C7.71274 20.4742 7.60263 19.7271 6.97045 18.9484Z" fill="#E7854D"/>
    <path opacity="0.12" d="M17.4615 34.4441C16.4979 36.1675 15.1623 37.6425 14.9343 39.6565C14.9034 39.9301 14.6729 40.011 14.4366 40.0059C11.1711 39.9362 7.88788 40.2935 4.64334 39.8275C2.08211 39.4597 0.318723 36.9516 0.422302 34.1716C0.514391 31.7 2.57306 29.4755 5.03444 29.159C6.70699 28.9439 8.38439 29.0657 10.0591 29.0534C13.2738 29.0298 16.4888 29.0441 19.7037 29.05C19.9712 29.0505 20.2672 28.9736 20.6027 29.3237C19.5788 30.9921 18.5357 32.692 17.4615 34.4441ZM11.5355 35.3551C12.2472 36.2607 13.13 36.4878 13.9136 35.9667C14.6638 35.4679 14.9253 34.5168 14.5196 33.7632C14.1064 32.9959 13.1537 32.6425 12.3843 32.9712C11.4675 33.3629 11.1265 34.217 11.5355 35.3551ZM6.97192 35.8089C7.57807 35.0872 7.7109 34.2212 7.25458 33.6075C6.81077 33.0107 6.22175 32.6732 5.44659 32.8916C4.77744 33.0802 4.32632 33.5005 4.21891 34.2125C4.11729 34.8862 4.23676 35.4923 4.8499 35.9025C5.5253 36.3545 6.20095 36.3431 6.97192 35.8089Z" fill="#E7854D"/>
  </g>
  <defs>
    <clipPath id="clip0_3772_43534">
      <rect width="44" height="44" fill="white"/>
    </clipPath>
  </defs>
</svg>