<svg xmlns="http://www.w3.org/2000/svg" width="48" height="48" viewBox="0 0 48 48" fill="none">
  <path opacity="0.12" d="M15.0292 33.2831C13.7321 31.985 12.4923 30.7178 11.2193 29.4848C10.7315 29.0124 10.7042 28.6796 11.224 28.1879C12.5109 26.9707 13.7305 25.6826 15.0001 24.4465C16.3065 23.1745 17.8752 22.5387 19.7145 22.5437C24.5887 22.5569 29.463 22.5486 34.3373 22.5489C34.6563 22.5489 34.9753 22.5489 35.2362 22.5489C35.4588 22.9474 35.2388 23.1586 35.1235 23.3812C34.5392 24.5084 33.9078 25.6128 33.3644 26.7591C32.9466 27.6404 32.3504 28.0278 31.3529 28.0092C28.7838 27.9613 26.2131 27.994 23.643 27.9949C23.4067 27.995 23.1692 27.9832 22.9343 28.0028C22.1331 28.0693 21.5844 28.5892 21.5868 29.2649C21.5892 29.9227 22.1609 30.486 22.947 30.5133C23.9797 30.5492 25.0146 30.526 26.0485 30.5264C27.88 30.5271 29.7118 30.5431 31.543 30.5214C33.2814 30.5007 34.6031 29.7678 35.403 28.1739C36.7682 25.4535 38.259 22.8012 39.8828 20.2283C41.0827 18.3271 42.8398 17.2874 45.1079 17.2431C46.4243 17.2175 47.0867 18.2467 46.466 19.3953C44.234 23.5255 42.0663 27.6967 39.6587 31.7235C37.9919 34.5114 35.3042 35.9127 32.0225 35.9594C28.6555 36.0072 25.2871 35.9939 21.9198 35.9577C21.1207 35.9491 20.4665 36.093 19.9886 36.7612C19.504 37.4388 19.0656 37.3616 18.5146 36.7789C17.3987 35.599 16.2239 34.4749 15.0292 33.2831Z" fill="#E7854D"/>
  <path opacity="0.12" d="M15.7573 43.6917C14.8458 44.5805 13.9992 45.4477 13.1052 46.2628C12.2909 47.0052 11.6166 47.024 10.8428 46.2601C7.77538 43.2316 4.72606 40.1844 1.6968 37.1176C0.917453 36.3286 0.954879 35.5824 1.75286 34.7882C3.4687 33.0805 5.22121 31.4097 6.93844 29.7033C7.35195 29.2924 7.62115 29.3282 8.02337 29.7339C11.4117 33.1518 14.8097 36.5603 18.2333 39.9428C18.7732 40.4762 18.7335 40.8076 18.2025 41.2889C17.3719 42.0416 16.599 42.8579 15.7573 43.6917Z" fill="#E7854D"/>
  <path d="M39.0071 16.1042C38.8112 16.8358 38.4317 17.3515 37.7166 17.3295C35.3019 17.2554 33.0152 17.598 31.12 19.1911C30.6881 18.8939 30.8204 18.5381 30.8198 18.2387C30.8111 13.4008 30.8317 8.56277 30.797 3.72512C30.7912 2.92561 31.0561 2.51073 31.7802 2.18067C33.6666 1.3207 35.6402 1.15952 37.6603 1.28727C38.5572 1.34398 39.0189 1.93199 39.0359 3.02031C39.0608 4.61289 39.0464 6.20613 39.0436 7.79908C39.0387 10.5423 39.0297 13.2854 39.0071 16.1042Z" fill="#E7854D"/>
  <path d="M28.4082 13.2116C28.4082 15.2303 28.4082 17.1604 28.4082 19.0243C27.9982 19.1776 27.8411 19.0138 27.6821 18.8959C26.1493 17.7591 24.4133 17.3294 22.528 17.3481C20.5349 17.3679 20.1837 16.9928 20.1829 14.9687C20.1812 11.102 20.1782 7.23522 20.1805 3.36847C20.1815 1.70007 20.6148 1.31108 22.2682 1.25855C24.0983 1.2004 25.8447 1.46073 27.5188 2.23611C28.1607 2.53346 28.4389 2.90666 28.4291 3.6482C28.3873 6.80599 28.4094 9.96464 28.4082 13.2116Z" fill="#E7854D"/>
</svg>