<svg xmlns="http://www.w3.org/2000/svg" width="110" height="32" viewBox="0 0 110 32" fill="none">
  <path d="M1.67861 30.2764C1.61295 28.3721 1.58012 26.227 1.58012 23.8412C1.58012 21.6086 1.61295 19.2447 1.67861 16.7494C1.74428 14.2542 1.85372 11.7152 2.00694 9.13234C2.16015 6.54953 2.3462 4.03238 2.56509 1.5809L8.27791 1.6794C8.08092 3.21157 7.90581 4.77658 7.7526 6.37442C7.62127 7.95038 7.51183 9.53727 7.42427 11.1351C8.34358 10.5004 9.44894 9.7671 10.7403 8.93534C12.0536 8.0817 13.4545 7.22806 14.9429 6.37442C16.4313 5.49889 17.9197 4.66714 19.4081 3.87916C20.9184 3.09119 22.3302 2.4236 23.6434 1.87639L25.2522 7.45789C23.9171 8.0051 22.5709 8.60702 21.2139 9.26367C19.8787 9.92032 18.5982 10.577 17.3725 11.2336C16.1686 11.8684 15.0961 12.4812 14.1549 13.0722C13.2137 13.6413 12.4695 14.1447 11.9223 14.5825C11.3751 14.9984 11.1015 15.3048 11.1015 15.5018C11.1015 15.7864 11.5283 16.2679 12.382 16.9464C13.2356 17.625 14.3957 18.4239 15.8622 19.3432C17.3287 20.2625 18.9922 21.2256 20.8527 22.2324C22.7351 23.2393 25.8454 24.5964 28.2093 25.3187L36.9957 31.13C34.5653 31.13 25.6484 31.3927 16.7487 26.3693C14.6693 25.056 12.8088 23.8193 11.1672 22.6593C9.54743 21.4992 8.2013 20.5033 7.12878 19.6715C7.12878 20.4814 7.12878 21.2913 7.12878 22.1011C7.12878 23.5676 7.13973 24.9904 7.16161 26.3693C7.20539 27.7264 7.24917 28.9959 7.29294 30.1779L1.67861 30.2764Z" fill="url(#paint0_linear_4855_2629)"/>
  <path d="M36.9957 31.13C35.2446 31.13 33.7453 30.353 32.432 29.7839C31.1406 29.2148 30.0681 28.4378 29.2144 27.4528C28.3608 26.4459 27.726 25.2968 27.3102 24.0054C26.8943 22.714 26.6863 21.3569 26.6863 19.9342C26.6863 18.4896 26.9381 17.1544 27.4415 15.9286C27.9668 14.681 28.6782 13.5975 29.5756 12.6782C30.4949 11.7589 31.5674 11.0476 32.7932 10.5441C34.0189 10.0188 35.3541 9.75616 36.7987 9.75616C38.309 9.75616 39.7098 10.0188 41.0012 10.5441C42.2927 11.0694 43.4199 11.8027 44.383 12.7439C45.3461 13.6851 46.0903 14.7904 46.6156 16.06C47.1628 17.3295 47.4364 18.7084 47.4364 20.1968C47.4364 23.502 46.528 26.0738 44.7113 27.9124C42.8946 29.7292 40.3008 31.13 36.9957 31.13ZM36.9957 25.3187C38.5935 25.3187 39.8083 24.87 40.6401 23.9726C41.4937 23.0751 41.9205 21.7837 41.9205 20.0983C41.9205 18.5881 41.4609 17.3733 40.5416 16.454C39.6223 15.5346 38.4184 15.075 36.93 15.075C36.0326 15.075 35.2118 15.3158 34.4676 15.7973C33.7234 16.257 33.1215 16.8808 32.6618 17.6688C32.2241 18.4348 32.0052 19.2885 32.0052 20.2297C32.0052 21.0614 32.1693 21.8713 32.4977 22.6593C32.8479 23.4472 33.3951 24.0929 34.1393 24.5964C34.8835 25.0779 35.8356 25.3187 36.9957 25.3187Z" fill="url(#paint1_linear_4855_2629)"/>
  <path d="M56.856 30.2197C55.2144 30.2197 53.726 29.7929 52.3908 28.9393C51.0557 28.1075 49.9941 26.9803 49.2061 25.5575C48.44 24.1129 48.057 22.5041 48.057 20.7312C48.057 19.0677 48.3634 17.5683 48.9763 16.2332C49.5891 14.8761 50.4209 13.716 51.4715 12.7529C52.5441 11.7898 53.7589 11.0566 55.1159 10.5532C56.473 10.0278 57.8957 9.76518 59.3841 9.76518C60.6318 9.76518 61.8575 9.94029 63.0614 10.2905C63.1489 9.83085 63.2255 9.37119 63.2912 8.91154L68.9055 9.86368C68.7523 10.2796 68.5991 10.9034 68.4459 11.7351C68.2926 12.5669 68.1613 13.4971 68.0519 14.5259C67.9643 15.5546 67.8877 16.5834 67.822 17.6121C67.7564 18.6409 67.7235 19.5711 67.7235 20.4029C67.7235 21.0814 67.7673 21.749 67.8549 22.4056C67.9643 23.0404 68.1832 23.5657 68.5115 23.9816C68.8399 24.3756 69.3433 24.5726 70.0218 24.5726H70.4815L69.6607 30.2854C68.216 30.2854 67.0231 30.0337 66.0819 29.5303C65.1407 29.0487 64.3856 28.3921 63.8165 27.5603C62.8753 28.6109 61.8028 29.3114 60.5989 29.6616C59.3951 30.0337 58.1474 30.2197 56.856 30.2197ZM53.4415 21.3878C53.5509 22.4385 53.9777 23.2812 54.7219 23.9159C55.488 24.5288 56.4511 24.8352 57.6112 24.8352C58.7275 24.8352 59.6577 24.5397 60.4019 23.9488C61.1461 23.3359 61.759 22.5041 62.2405 21.4535C62.2187 21.1033 62.2077 20.7421 62.2077 20.37C62.2077 19.6039 62.2296 18.816 62.2734 18.0061C62.3172 17.1962 62.3719 16.3973 62.4375 15.6093C61.5182 15.2591 60.5551 15.084 59.5483 15.084C58.3663 15.084 57.3048 15.3248 56.3636 15.8063C55.4443 16.266 54.7219 16.9117 54.1966 17.7434C53.6713 18.5752 53.4086 19.5383 53.4086 20.6327C53.4086 20.764 53.4086 20.8953 53.4086 21.0267C53.4086 21.158 53.4196 21.2784 53.4415 21.3878Z" fill="white"/>
  <path d="M81.0376 6.58044C80.9938 6.03324 80.9391 5.37659 80.8734 4.6105C80.8296 3.84441 80.8077 3.11116 80.8077 2.41074C80.8077 2.16997 80.8077 1.92919 80.8077 1.68842C80.8296 1.42577 80.8515 1.20688 80.8734 1.03178L86.5534 0.867615C86.5534 1.04272 86.5534 1.39293 86.5534 1.91825C86.5753 2.44357 86.5862 3.02361 86.5862 3.65837C86.6081 4.29312 86.63 4.87316 86.6519 5.39848C86.6738 5.90191 86.6847 6.24118 86.6847 6.41628L81.0376 6.58044ZM78.9691 30.2197C76.5177 30.2197 74.5039 29.4099 72.928 27.7901C71.352 26.1704 70.2905 23.8503 69.7432 20.8297L75.2919 19.1881C75.2919 19.779 75.3576 20.4029 75.4889 21.0595C75.6421 21.7162 75.872 22.34 76.1784 22.931C76.4848 23.5219 76.8679 24.0035 77.3275 24.3756C77.7872 24.7258 78.3125 24.9009 78.9035 24.9009C79.7133 24.9009 80.3043 24.7039 80.6764 24.3099C81.0704 23.9159 81.3112 23.2483 81.3987 22.3071C81.4425 21.8037 81.4753 21.2346 81.4972 20.5999C81.5191 19.9432 81.5301 19.2647 81.5301 18.5643C81.5301 17.448 81.5082 16.3317 81.4644 15.2154C81.4206 14.0772 81.3659 13.0375 81.3002 12.0963C81.2346 11.1551 81.147 10.4328 81.0376 9.92934L86.7832 9.76518C86.8051 10.1811 86.827 10.8596 86.8489 11.8008C86.8708 12.7201 86.8927 13.7926 86.9146 15.0184C86.9365 16.2441 86.9474 17.5136 86.9474 18.8269C86.9474 19.6368 86.9365 20.4466 86.9146 21.2565C86.8927 22.0664 86.8489 22.8215 86.7832 23.5219C86.7176 24.2442 86.5315 24.9994 86.2251 25.7874C85.9405 26.5753 85.4918 27.2977 84.879 27.9543C84.2661 28.6328 83.4781 29.18 82.515 29.5959C81.5519 30.0118 80.37 30.2197 78.9691 30.2197Z" fill="white"/>
  <path d="M97.919 30.3182C96.168 30.3182 94.6358 30.0337 93.3225 29.4646C92.0311 28.8955 90.9586 28.1185 90.1049 27.1335C89.2513 26.1266 88.6165 24.9775 88.2007 23.6861C87.7848 22.3947 87.5769 21.0376 87.5769 19.6149C87.5769 18.1703 87.8286 16.8351 88.332 15.6093C88.8573 14.3617 89.5687 13.2782 90.4661 12.3589C91.3854 11.4396 92.4579 10.7283 93.6837 10.2248C94.9094 9.69952 96.2446 9.43686 97.6892 9.43686C99.1995 9.43686 100.6 9.69952 101.892 10.2248C103.183 10.7502 104.31 11.4834 105.273 12.4246C106.237 13.3658 106.981 14.4712 107.506 15.7407C108.053 17.0102 108.327 18.3891 108.327 19.8775C108.327 23.1827 107.419 25.7545 105.602 27.5931C103.785 29.4099 101.224 30.3182 97.919 30.3182ZM97.8862 24.9994C99.484 24.9994 100.699 24.5507 101.531 23.6533C102.384 22.7558 102.811 21.4644 102.811 19.779C102.811 18.2688 102.351 17.054 101.432 16.1347C100.513 15.2154 99.309 14.7557 97.8205 14.7557C96.9231 14.7557 96.1023 14.9965 95.3581 15.478C94.6139 15.9377 94.012 16.5615 93.5523 17.3495C93.1146 18.1155 92.8957 18.9692 92.8957 19.9104C92.8957 20.7421 93.0599 21.552 93.3882 22.34C93.7384 23.1279 94.2856 23.7736 95.0298 24.2771C95.774 24.7586 96.7261 24.9994 97.8862 24.9994Z" fill="white"/>
  <path d="M36.9957 31.13L28.2093 25.3187C25.8454 24.5964 22.7351 23.2393 20.8527 22.2324C18.9922 21.2256 17.3287 20.2625 15.8622 19.3432C14.3957 18.4239 13.2356 17.625 12.382 16.9464C11.5283 16.2679 11.1015 15.7864 11.1015 15.5018C11.1015 15.3048 11.3751 14.9984 11.9223 14.5825C12.4695 14.1447 13.2137 13.6413 14.1549 13.0722C15.0961 12.4812 16.1686 11.8684 17.3725 11.2336C18.5982 10.577 19.8787 9.92032 21.2139 9.26367C22.5709 8.60702 23.9171 8.0051 25.2522 7.45789L23.6434 1.87639C22.3302 2.4236 20.9184 3.09119 19.4081 3.87916C17.9197 4.66714 16.4313 5.49889 14.9429 6.37442C13.4545 7.22806 12.0536 8.0817 10.7403 8.93534C9.44894 9.7671 8.34358 10.5004 7.42427 11.1351C7.51183 9.53727 7.62127 7.95038 7.7526 6.37442C7.90581 4.77658 8.08092 3.21157 8.27791 1.6794L2.56509 1.5809C2.3462 4.03238 2.16015 6.54953 2.00694 9.13234C1.85372 11.7152 1.74428 14.2542 1.67861 16.7494C1.61295 19.2447 1.58012 21.6086 1.58012 23.8412C1.58012 26.227 1.61295 28.3721 1.67861 30.2764L7.29294 30.1779C7.24917 28.9959 7.20539 27.7264 7.16161 26.3693C7.13973 24.9904 7.12878 23.5676 7.12878 22.1011C7.12878 21.2913 7.12878 20.4814 7.12878 19.6715C8.2013 20.5033 9.54743 21.4992 11.1672 22.6593C12.8088 23.8193 14.6693 25.056 16.7487 26.3693C25.6484 31.3927 34.5653 31.13 36.9957 31.13ZM36.9957 31.13C35.2446 31.13 33.7453 30.353 32.432 29.7839C31.1406 29.2148 30.0681 28.4378 29.2144 27.4528C28.3608 26.4459 27.726 25.2968 27.3102 24.0054C26.8943 22.714 26.6863 21.3569 26.6863 19.9342C26.6863 18.4896 26.9381 17.1544 27.4415 15.9286C27.9668 14.681 28.6782 13.5975 29.5756 12.6782C30.4949 11.7589 31.5674 11.0476 32.7932 10.5441C34.0189 10.0188 35.3541 9.75616 36.7987 9.75616C38.309 9.75616 39.7098 10.0188 41.0012 10.5441C42.2927 11.0694 43.4199 11.8027 44.383 12.7439C45.3461 13.6851 46.0903 14.7904 46.6156 16.06C47.1628 17.3295 47.4364 18.7084 47.4364 20.1968C47.4364 23.502 46.528 26.0738 44.7113 27.9124C42.8946 29.7292 40.3008 31.13 36.9957 31.13ZM1.68665 1.6998C1.32615 9.79683 0.714429 26.6281 1.15151 29.1767M8.10116 9.54551C11.7361 7.05897 20.5311 2.28478 23.4595 1.24566M48.5297 15.455C49.7519 12.6102 54.2192 7.96371 61.7736 9.67061M51.657 29.0436C53.4481 30.5397 58.2758 32.3815 63.5102 28.7907M73.1515 28.9488C74.9426 30.445 80.1686 32.8051 85.0363 28.7592M103.843 10.7752C107.731 12.6085 112.314 21.3325 105.518 28.5392M26.5606 19.7529C25.9875 15.4929 30.2496 7.36047 39.7098 9.54333M39.613 30.9467C43.8169 29.9036 45.7454 28.5071 47.4838 24.1135M76.0596 19.5618C76.3125 21.3634 77.1659 24.303 78.9992 24.4295C79.8842 24.4295 81.275 24.714 80.8641 16.717C80.6745 13.0188 80.548 11.0907 80.4848 10.8062M36.9957 25.3187C38.5935 25.3187 39.8083 24.87 40.6401 23.9726C41.4937 23.0751 41.9205 21.7837 41.9205 20.0983C41.9205 18.5881 41.4609 17.3733 40.5416 16.454C39.6223 15.5346 38.4184 15.075 36.93 15.075C36.0326 15.075 35.2118 15.3158 34.4676 15.7973C33.7234 16.257 33.1215 16.8808 32.6618 17.6688C32.2241 18.4348 32.0052 19.2885 32.0052 20.2297C32.0052 21.0614 32.1693 21.8713 32.4977 22.6593C32.8479 23.4472 33.3951 24.0929 34.1393 24.5964C34.8835 25.0779 35.8356 25.3187 36.9957 25.3187ZM56.856 30.2197C55.2144 30.2197 53.726 29.7929 52.3908 28.9393C51.0557 28.1075 49.9941 26.9803 49.2061 25.5575C48.44 24.1129 48.057 22.5041 48.057 20.7312C48.057 19.0677 48.3634 17.5683 48.9763 16.2332C49.5891 14.8761 50.4209 13.716 51.4715 12.7529C52.5441 11.7898 53.7589 11.0566 55.1159 10.5532C56.473 10.0278 57.8957 9.76518 59.3841 9.76518C60.6318 9.76518 61.8575 9.94029 63.0614 10.2905C63.1489 9.83085 63.2255 9.37119 63.2912 8.91154L68.9055 9.86368C68.7523 10.2796 68.5991 10.9034 68.4459 11.7351C68.2926 12.5669 68.1613 13.4971 68.0519 14.5259C67.9643 15.5546 67.8877 16.5834 67.822 17.6121C67.7564 18.6409 67.7235 19.5711 67.7235 20.4029C67.7235 21.0814 67.7673 21.749 67.8549 22.4056C67.9643 23.0404 68.1832 23.5657 68.5115 23.9816C68.8399 24.3756 69.3433 24.5726 70.0218 24.5726H70.4815L69.6607 30.2854C68.216 30.2854 67.0231 30.0337 66.0819 29.5303C65.1407 29.0487 64.3856 28.3921 63.8165 27.5603C62.8753 28.6109 61.8028 29.3114 60.5989 29.6616C59.3951 30.0337 58.1474 30.2197 56.856 30.2197ZM53.4415 21.3878C53.5509 22.4385 53.9777 23.2812 54.7219 23.9159C55.488 24.5288 56.4511 24.8352 57.6112 24.8352C58.7275 24.8352 59.6577 24.5397 60.4019 23.9488C61.1461 23.3359 61.759 22.5041 62.2405 21.4535C62.2187 21.1033 62.2077 20.7421 62.2077 20.37C62.2077 19.6039 62.2296 18.816 62.2734 18.0061C62.3172 17.1962 62.3719 16.3973 62.4375 15.6093C61.5182 15.2591 60.5551 15.084 59.5483 15.084C58.3663 15.084 57.3048 15.3248 56.3636 15.8063C55.4443 16.266 54.7219 16.9117 54.1966 17.7434C53.6713 18.5752 53.4086 19.5383 53.4086 20.6327C53.4086 20.764 53.4086 20.8953 53.4086 21.0267C53.4086 21.158 53.4196 21.2784 53.4415 21.3878ZM81.0376 6.58044C80.9938 6.03324 80.9391 5.37659 80.8734 4.6105C80.8296 3.84441 80.8077 3.11116 80.8077 2.41074C80.8077 2.16997 80.8077 1.92919 80.8077 1.68842C80.8296 1.42577 80.8515 1.20688 80.8734 1.03178L86.5534 0.867615C86.5534 1.04272 86.5534 1.39293 86.5534 1.91825C86.5753 2.44357 86.5862 3.02361 86.5862 3.65837C86.6081 4.29312 86.63 4.87316 86.6519 5.39848C86.6738 5.90191 86.6847 6.24118 86.6847 6.41628L81.0376 6.58044ZM78.9691 30.2197C76.5177 30.2197 74.5039 29.4099 72.928 27.7901C71.352 26.1704 70.2905 23.8503 69.7432 20.8297L75.2919 19.1881C75.2919 19.779 75.3576 20.4029 75.4889 21.0595C75.6421 21.7162 75.872 22.34 76.1784 22.931C76.4848 23.5219 76.8679 24.0035 77.3275 24.3756C77.7872 24.7258 78.3125 24.9009 78.9035 24.9009C79.7133 24.9009 80.3043 24.7039 80.6764 24.3099C81.0704 23.9159 81.3112 23.2483 81.3987 22.3071C81.4425 21.8037 81.4753 21.2346 81.4972 20.5999C81.5191 19.9432 81.5301 19.2647 81.5301 18.5643C81.5301 17.448 81.5082 16.3317 81.4644 15.2154C81.4206 14.0772 81.3659 13.0375 81.3002 12.0963C81.2346 11.1551 81.147 10.4328 81.0376 9.92934L86.7832 9.76518C86.8051 10.1811 86.827 10.8596 86.8489 11.8008C86.8708 12.7201 86.8927 13.7926 86.9146 15.0184C86.9365 16.2441 86.9474 17.5136 86.9474 18.8269C86.9474 19.6368 86.9365 20.4466 86.9146 21.2565C86.8927 22.0664 86.8489 22.8215 86.7832 23.5219C86.7176 24.2442 86.5315 24.9994 86.2251 25.7874C85.9405 26.5753 85.4918 27.2977 84.879 27.9543C84.2661 28.6328 83.4781 29.18 82.515 29.5959C81.5519 30.0118 80.37 30.2197 78.9691 30.2197ZM97.919 30.3182C96.168 30.3182 94.6358 30.0337 93.3225 29.4646C92.0311 28.8955 90.9586 28.1185 90.1049 27.1335C89.2513 26.1266 88.6165 24.9775 88.2007 23.6861C87.7848 22.3947 87.5769 21.0376 87.5769 19.6149C87.5769 18.1703 87.8286 16.8351 88.332 15.6093C88.8573 14.3617 89.5687 13.2782 90.4661 12.3589C91.3854 11.4396 92.4579 10.7283 93.6837 10.2248C94.9094 9.69952 96.2446 9.43686 97.6892 9.43686C99.1995 9.43686 100.6 9.69952 101.892 10.2248C103.183 10.7502 104.31 11.4834 105.273 12.4246C106.237 13.3658 106.981 14.4712 107.506 15.7407C108.053 17.0102 108.327 18.3891 108.327 19.8775C108.327 23.1827 107.419 25.7545 105.602 27.5931C103.785 29.4099 101.224 30.3182 97.919 30.3182ZM97.8862 24.9994C99.484 24.9994 100.699 24.5507 101.531 23.6533C102.384 22.7558 102.811 21.4644 102.811 19.779C102.811 18.2688 102.351 17.054 101.432 16.1347C100.513 15.2154 99.3089 14.7557 97.8205 14.7557C96.9231 14.7557 96.1023 14.9965 95.3581 15.478C94.6139 15.9377 94.012 16.5615 93.5523 17.3495C93.1146 18.1155 92.8957 18.9692 92.8957 19.9104C92.8957 20.7421 93.0599 21.552 93.3882 22.34C93.7384 23.1279 94.2856 23.7736 95.0298 24.2771C95.774 24.7586 96.7261 24.9994 97.8862 24.9994Z" stroke="url(#paint2_linear_4855_2629)" stroke-width="0.0944652"/>
  <defs>
    <linearGradient id="paint0_linear_4855_2629" x1="-2.01281" y1="0.867615" x2="58.961" y2="68.5635" gradientUnits="userSpaceOnUse">
      <stop stop-color="#FD8B51"/>
      <stop offset="0.540837" stop-color="#469DA3"/>
      <stop offset="1" stop-color="#FD8B51"/>
    </linearGradient>
    <linearGradient id="paint1_linear_4855_2629" x1="-2.01281" y1="0.867615" x2="58.961" y2="68.5635" gradientUnits="userSpaceOnUse">
      <stop stop-color="#FD8B51"/>
      <stop offset="0.540837" stop-color="#469DA3"/>
      <stop offset="1" stop-color="#FD8B51"/>
    </linearGradient>
    <linearGradient id="paint2_linear_4855_2629" x1="78.4989" y1="10.8062" x2="78.4989" y2="24.4307" gradientUnits="userSpaceOnUse">
      <stop stop-color="white" stop-opacity="0"/>
      <stop offset="0.49"/>
      <stop offset="1" stop-color="white" stop-opacity="0"/>
    </linearGradient>
  </defs>
</svg>