<svg xmlns="http://www.w3.org/2000/svg" width="102" height="30" viewBox="0 0 102 30" fill="none">
  <path d="M1.62834 28.2081C1.56754 26.4463 1.53714 24.4618 1.53714 22.2545C1.53714 20.1889 1.56754 18.0019 1.62834 15.6934C1.68915 13.3848 1.79048 11.0358 1.93235 8.64627C2.07422 6.25673 2.24648 3.92794 2.44915 1.65991L7.73881 1.75104C7.55641 3.16856 7.39427 4.61646 7.2524 6.09473C7.1308 7.55275 7.02947 9.0209 6.9484 10.4992C7.79961 9.91191 8.82309 9.23352 10.0188 8.46401C11.2348 7.67425 12.5319 6.88449 13.9101 6.09473C15.2882 5.28472 16.6664 4.5152 18.0445 3.78619C19.4429 3.05718 20.7501 2.43955 21.9662 1.93329L23.4558 7.09712C22.2195 7.60338 20.9731 8.16026 19.7165 8.76777C18.4803 9.37528 17.2946 9.98279 16.1597 10.5903C15.045 11.1776 14.0519 11.7446 13.1805 12.2913C12.309 12.8178 11.6199 13.2836 11.1132 13.6886C10.6066 14.0733 10.3532 14.3569 10.3532 14.5391C10.3532 14.8024 10.7484 15.2479 11.5388 15.8756C12.3293 16.5034 13.4034 17.2425 14.7613 18.093C16.1192 18.9435 17.6594 19.8346 19.3821 20.7661C21.1251 21.6976 24.005 22.9531 26.1938 23.6214L34.3293 28.9978C32.079 28.9978 23.8226 29.2408 15.5821 24.5934C13.6567 23.3784 11.9341 22.2342 10.414 21.161C8.91429 20.0877 7.66787 19.1663 6.6748 18.3968C6.6748 19.1461 6.6748 19.8953 6.6748 20.6446C6.6748 22.0013 6.68493 23.3176 6.7052 24.5934C6.74573 25.8489 6.78627 27.0234 6.8268 28.1169L1.62834 28.2081Z" fill="url(#paint0_linear_3728_2216)"/>
  <path d="M34.3293 28.9978C32.708 28.9978 31.3197 28.2789 30.1037 27.7524C28.908 27.2259 27.9149 26.507 27.1245 25.5958C26.3341 24.6643 25.7463 23.6011 25.3613 22.4064C24.9762 21.2116 24.7836 19.9561 24.7836 18.6398C24.7836 17.3033 25.0167 16.068 25.4829 14.934C25.9693 13.7797 26.6279 12.7773 27.4589 11.9268C28.3101 11.0763 29.3032 10.4182 30.4381 9.95241C31.5731 9.4664 32.8093 9.2234 34.1469 9.2234C35.5454 9.2234 36.8424 9.4664 38.0382 9.95241C39.2339 10.4384 40.2777 11.1168 41.1694 11.9876C42.0612 12.8583 42.7502 13.881 43.2366 15.0555C43.7433 16.23 43.9967 17.5058 43.9967 18.8828C43.9967 21.9406 43.1556 24.32 41.4734 26.021C39.7913 27.7018 37.3896 28.9978 34.3293 28.9978ZM34.3293 23.6214C35.8088 23.6214 36.9336 23.2062 37.7038 22.376C38.4942 21.5457 38.8894 20.3509 38.8894 18.7917C38.8894 17.3944 38.4638 16.2705 37.6126 15.42C36.7614 14.5695 35.6467 14.1442 34.2686 14.1442C33.4376 14.1442 32.6776 14.367 31.9885 14.8125C31.2995 15.2377 30.7421 15.8149 30.3165 16.5439C29.9112 17.2526 29.7085 18.0424 29.7085 18.9132C29.7085 19.6827 29.8605 20.4319 30.1645 21.161C30.4888 21.89 30.9954 22.4874 31.6845 22.9531C32.3736 23.3986 33.2552 23.6214 34.3293 23.6214Z" fill="url(#paint1_linear_3728_2216)"/>
  <path d="M52.7186 28.1557C51.1985 28.1557 49.8204 27.7608 48.5841 26.971C47.3478 26.2015 46.3649 25.1586 45.6353 23.8424C44.9259 22.5058 44.5713 21.0174 44.5713 19.3772C44.5713 17.8381 44.855 16.451 45.4225 15.2157C45.9899 13.9602 46.7601 12.8869 47.7329 11.9959C48.726 11.1049 49.8508 10.4265 51.1073 9.96076C52.3639 9.47476 53.6812 9.23175 55.0594 9.23175C56.2146 9.23175 57.3495 9.39375 58.4642 9.71776C58.5453 9.2925 58.6162 8.86724 58.677 8.44199L63.8755 9.32288C63.7336 9.70763 63.5917 10.2848 63.4499 11.0543C63.308 11.8238 63.1864 12.6844 63.0851 13.6362C63.004 14.588 62.9331 15.5397 62.8723 16.4915C62.8115 17.4433 62.7811 18.3039 62.7811 19.0734C62.7811 19.7012 62.8216 20.3188 62.9027 20.9263C63.004 21.5136 63.2067 21.9996 63.5107 22.3843C63.8147 22.7488 64.2808 22.9311 64.9091 22.9311H65.3347L64.5747 28.2164C63.2371 28.2164 62.1325 27.9835 61.261 27.5178C60.3896 27.0723 59.6904 26.4648 59.1634 25.6953C58.2919 26.6673 57.2989 27.3153 56.1842 27.6393C55.0695 27.9835 53.9143 28.1557 52.7186 28.1557ZM49.5569 19.9847C49.6583 20.9567 50.0535 21.7363 50.7425 22.3236C51.4519 22.8906 52.3436 23.1741 53.4178 23.1741C54.4514 23.1741 55.3127 22.9007 56.0018 22.354C56.6909 21.7869 57.2583 21.0174 57.7042 20.0454C57.6839 19.7214 57.6738 19.3873 57.6738 19.043C57.6738 18.3343 57.6941 17.6053 57.7346 16.856C57.7751 16.1067 57.8258 15.3676 57.8866 14.6386C57.0354 14.3146 56.1437 14.1526 55.2114 14.1526C54.117 14.1526 53.134 14.3753 52.2626 14.8208C51.4113 15.2461 50.7425 15.8435 50.2561 16.613C49.7697 17.3825 49.5265 18.2735 49.5265 19.286C49.5265 19.4075 49.5265 19.529 49.5265 19.6505C49.5265 19.772 49.5367 19.8834 49.5569 19.9847Z" fill="#171717"/>
  <path d="M75.1089 6.28533C75.0683 5.77907 75.0177 5.17156 74.9569 4.4628C74.9163 3.75404 74.8961 3.07566 74.8961 2.42765C74.8961 2.20489 74.8961 1.98214 74.8961 1.75939C74.9163 1.51638 74.9366 1.31388 74.9569 1.15188L80.2161 1C80.2161 1.162 80.2161 1.48601 80.2161 1.97201C80.2364 2.45802 80.2465 2.99466 80.2465 3.58192C80.2668 4.16917 80.2871 4.70581 80.3073 5.19181C80.3276 5.65757 80.3377 5.97145 80.3377 6.13345L75.1089 6.28533ZM73.1936 28.1557C70.9238 28.1557 69.0592 27.4064 67.6 25.9079C66.1408 24.4094 65.1578 22.2628 64.6512 19.4683L69.7888 17.9495C69.7888 18.4963 69.8496 19.0734 69.9712 19.6809C70.1131 20.2884 70.3259 20.8656 70.6096 21.4123C70.8934 21.9591 71.248 22.4046 71.6736 22.7488C72.0992 23.0728 72.5856 23.2348 73.1328 23.2348C73.8827 23.2348 74.4299 23.0526 74.7745 22.6881C75.1393 22.3236 75.3622 21.7059 75.4433 20.8352C75.4838 20.3694 75.5142 19.8429 75.5345 19.2557C75.5547 18.6481 75.5649 18.0204 75.5649 17.3724C75.5649 16.3396 75.5446 15.3068 75.5041 14.2741C75.4635 13.2211 75.4129 12.2592 75.3521 11.3884C75.2913 10.5176 75.2102 9.84939 75.1089 9.38363L80.4289 9.23175C80.4492 9.61651 80.4695 10.2443 80.4897 11.115C80.51 11.9655 80.5303 12.9578 80.5505 14.0918C80.5708 15.2258 80.5809 16.4004 80.5809 17.6154C80.5809 18.3646 80.5708 19.1139 80.5505 19.8632C80.5303 20.6124 80.4897 21.3111 80.4289 21.9591C80.3681 22.6273 80.1958 23.326 79.9121 24.055C79.6486 24.784 79.2332 25.4522 78.6657 26.0598C78.0982 26.6875 77.3686 27.1938 76.4769 27.5785C75.5851 27.9633 74.4907 28.1557 73.1936 28.1557Z" fill="#171717"/>
  <path d="M90.7398 28.2468C89.1185 28.2468 87.6998 27.9835 86.4838 27.457C85.2881 26.9305 84.295 26.2116 83.5046 25.3004C82.7142 24.3689 82.1264 23.3057 81.7414 22.1109C81.3563 20.9162 81.1638 19.6607 81.1638 18.3444C81.1638 17.0079 81.3968 15.7726 81.863 14.6386C82.3494 13.4843 83.008 12.4819 83.839 11.6314C84.6902 10.7809 85.6833 10.1228 86.8182 9.65701C87.9532 9.171 89.1894 8.928 90.5271 8.928C91.9255 8.928 93.2225 9.171 94.4183 9.65701C95.614 10.143 96.6578 10.8214 97.5495 11.6922C98.4413 12.5629 99.1303 13.5856 99.6167 14.7601C100.123 15.9346 100.377 17.2104 100.377 18.5874C100.377 21.6452 99.5357 24.0246 97.8535 25.7256C96.1714 27.4064 93.8001 28.2468 90.7398 28.2468ZM90.7094 23.326C92.1889 23.326 93.3138 22.9108 94.0839 22.0806C94.8743 21.2503 95.2695 20.0555 95.2695 18.4963C95.2695 17.099 94.8439 15.9751 93.9927 15.1246C93.1415 14.2741 92.0268 13.8488 90.6487 13.8488C89.8177 13.8488 89.0577 14.0716 88.3686 14.5171C87.6796 14.9423 87.1222 15.5195 86.6966 16.2485C86.2913 16.9572 86.0886 17.747 86.0886 18.6178C86.0886 19.3873 86.2406 20.1365 86.5446 20.8656C86.8689 21.5946 87.3756 22.1919 88.0646 22.6577C88.7537 23.1032 89.6353 23.326 90.7094 23.326Z" fill="#171717"/>
  <path d="M34.3293 28.9978L26.1938 23.6214C24.005 22.9531 21.1251 21.6976 19.3821 20.7661C17.6594 19.8346 16.1192 18.9435 14.7613 18.093C13.4034 17.2425 12.3293 16.5034 11.5388 15.8756C10.7484 15.2479 10.3532 14.8024 10.3532 14.5391C10.3532 14.3569 10.6066 14.0733 11.1132 13.6886C11.6199 13.2836 12.309 12.8178 13.1805 12.2913C14.0519 11.7446 15.045 11.1776 16.1597 10.5903C17.2946 9.98279 18.4803 9.37528 19.7165 8.76777C20.9731 8.16026 22.2195 7.60338 23.4558 7.09712L21.9662 1.93329C20.7501 2.43955 19.4429 3.05718 18.0445 3.78619C16.6664 4.5152 15.2882 5.28471 13.9101 6.09473C12.5319 6.88449 11.2348 7.67425 10.0188 8.46401C8.82309 9.23352 7.79961 9.91191 6.9484 10.4992C7.02947 9.0209 7.1308 7.55275 7.2524 6.09473C7.39427 4.61646 7.55641 3.16856 7.73881 1.75104L2.44915 1.65991C2.24648 3.92794 2.07422 6.25673 1.93235 8.64627C1.79048 11.0358 1.68915 13.3848 1.62834 15.6934C1.56754 18.0019 1.53714 20.1889 1.53714 22.2545C1.53714 24.4618 1.56754 26.4463 1.62834 28.2081L6.8268 28.1169C6.78627 27.0234 6.74573 25.8489 6.7052 24.5934C6.68493 23.3176 6.6748 22.0013 6.6748 20.6446C6.6748 19.8953 6.6748 19.1461 6.6748 18.3968C7.66787 19.1663 8.91429 20.0877 10.414 21.161C11.9341 22.2342 13.6567 23.3784 15.5821 24.5934C23.8226 29.2408 32.079 28.9978 34.3293 28.9978ZM34.3293 28.9978C32.708 28.9978 31.3197 28.2789 30.1037 27.7524C28.908 27.2259 27.9149 26.507 27.1245 25.5958C26.3341 24.6643 25.7463 23.6011 25.3613 22.4064C24.9762 21.2116 24.7836 19.9561 24.7836 18.6398C24.7836 17.3033 25.0167 16.068 25.4829 14.934C25.9693 13.7797 26.6279 12.7773 27.4589 11.9268C28.3101 11.0763 29.3032 10.4182 30.4381 9.95241C31.5731 9.4664 32.8093 9.2234 34.1469 9.2234C35.5454 9.2234 36.8424 9.4664 38.0382 9.95241C39.2339 10.4384 40.2777 11.1168 41.1694 11.9876C42.0612 12.8583 42.7502 13.881 43.2366 15.0555C43.7433 16.23 43.9966 17.5058 43.9966 18.8828C43.9966 21.9406 43.1556 24.32 41.4734 26.021C39.7913 27.7018 37.3896 28.9978 34.3293 28.9978ZM1.63578 1.76991C1.30199 9.26103 0.735582 24.8328 1.14029 27.1906M7.57515 9.02852C10.9409 6.72805 19.0843 2.31111 21.7958 1.34976M45.0089 14.4958C46.1406 11.8639 50.277 7.56508 57.2719 9.14426M47.9046 27.0675C49.5631 28.4517 54.0332 30.1556 58.8798 26.8336M67.8069 26.9799C69.4654 28.3641 74.3042 30.5475 78.8114 26.8044M96.2251 10.1662C99.8249 11.8623 104.069 19.9334 97.7762 26.6009M24.6672 18.4721C24.1365 14.5308 28.0829 7.00699 36.8424 9.0265M36.7528 28.8283C40.6453 27.8632 42.4309 26.5712 44.0406 22.5064M70.4996 18.2952C70.7338 19.9621 71.524 22.6817 73.2215 22.7987C74.041 22.7987 75.3287 23.0619 74.9483 15.6634C74.7726 12.2419 74.6556 10.4581 74.597 10.1949M34.3293 23.6214C35.8088 23.6214 36.9336 23.2062 37.7038 22.376C38.4942 21.5457 38.8894 20.3509 38.8894 18.7917C38.8894 17.3944 38.4638 16.2705 37.6126 15.42C36.7614 14.5695 35.6467 14.1442 34.2686 14.1442C33.4376 14.1442 32.6776 14.367 31.9885 14.8125C31.2995 15.2377 30.7421 15.8149 30.3165 16.5439C29.9112 17.2526 29.7085 18.0424 29.7085 18.9132C29.7085 19.6827 29.8605 20.4319 30.1645 21.161C30.4888 21.89 30.9954 22.4874 31.6845 22.9531C32.3736 23.3986 33.2552 23.6214 34.3293 23.6214ZM52.7186 28.1557C51.1985 28.1557 49.8204 27.7608 48.5841 26.971C47.3478 26.2015 46.3649 25.1586 45.6353 23.8423C44.9259 22.5058 44.5713 21.0174 44.5713 19.3772C44.5713 17.8381 44.855 16.451 45.4225 15.2157C45.99 13.9602 46.7601 12.8869 47.7329 11.9959C48.726 11.1049 49.8508 10.4265 51.1073 9.96076C52.3639 9.47476 53.6812 9.23175 55.0594 9.23175C56.2146 9.23175 57.3495 9.39375 58.4642 9.71776C58.5453 9.2925 58.6162 8.86724 58.677 8.44199L63.8755 9.32288C63.7336 9.70763 63.5917 10.2848 63.4499 11.0543C63.308 11.8238 63.1864 12.6844 63.0851 13.6362C63.004 14.588 62.9331 15.5397 62.8723 16.4915C62.8115 17.4433 62.7811 18.3039 62.7811 19.0734C62.7811 19.7012 62.8216 20.3188 62.9027 20.9263C63.004 21.5136 63.2067 21.9996 63.5107 22.3843C63.8147 22.7488 64.2808 22.9311 64.9091 22.9311H65.3347L64.5747 28.2164C63.2371 28.2164 62.1325 27.9835 61.261 27.5178C60.3896 27.0723 59.6904 26.4648 59.1634 25.6953C58.2919 26.6673 57.2989 27.3153 56.1842 27.6393C55.0695 27.9835 53.9143 28.1557 52.7186 28.1557ZM49.5569 19.9847C49.6583 20.9567 50.0535 21.7363 50.7425 22.3236C51.4519 22.8906 52.3436 23.1741 53.4178 23.1741C54.4514 23.1741 55.3127 22.9007 56.0018 22.3539C56.6909 21.7869 57.2583 21.0174 57.7042 20.0454C57.6839 19.7214 57.6738 19.3873 57.6738 19.043C57.6738 18.3343 57.6941 17.6053 57.7346 16.856C57.7751 16.1067 57.8258 15.3676 57.8866 14.6386C57.0354 14.3146 56.1437 14.1526 55.2114 14.1526C54.117 14.1526 53.134 14.3753 52.2626 14.8208C51.4113 15.2461 50.7425 15.8435 50.2561 16.613C49.7697 17.3825 49.5265 18.2735 49.5265 19.286C49.5265 19.4075 49.5265 19.529 49.5265 19.6505C49.5265 19.772 49.5367 19.8834 49.5569 19.9847ZM75.1089 6.28533C75.0683 5.77907 75.0177 5.17156 74.9569 4.4628C74.9163 3.75404 74.8961 3.07566 74.8961 2.42765C74.8961 2.20489 74.8961 1.98214 74.8961 1.75939C74.9163 1.51638 74.9366 1.31388 74.9569 1.15188L80.2161 1C80.2161 1.162 80.2161 1.48601 80.2161 1.97201C80.2364 2.45802 80.2465 2.99466 80.2465 3.58192C80.2668 4.16917 80.2871 4.70581 80.3073 5.19181C80.3276 5.65757 80.3377 5.97145 80.3377 6.13345L75.1089 6.28533ZM73.1936 28.1557C70.9238 28.1557 69.0592 27.4064 67.6 25.9079C66.1408 24.4094 65.1578 22.2628 64.6512 19.4683L69.7888 17.9495C69.7888 18.4963 69.8496 19.0734 69.9712 19.6809C70.1131 20.2884 70.3259 20.8656 70.6096 21.4123C70.8934 21.9591 71.248 22.4046 71.6736 22.7488C72.0992 23.0728 72.5856 23.2348 73.1328 23.2348C73.8827 23.2348 74.4299 23.0526 74.7745 22.6881C75.1393 22.3236 75.3622 21.7059 75.4433 20.8352C75.4838 20.3694 75.5142 19.8429 75.5345 19.2557C75.5547 18.6481 75.5649 18.0204 75.5649 17.3724C75.5649 16.3396 75.5446 15.3068 75.5041 14.2741C75.4635 13.2211 75.4129 12.2592 75.3521 11.3884C75.2913 10.5176 75.2102 9.84939 75.1089 9.38363L80.4289 9.23175C80.4492 9.61651 80.4695 10.2443 80.4897 11.115C80.51 11.9655 80.5303 12.9578 80.5505 14.0918C80.5708 15.2258 80.5809 16.4004 80.5809 17.6154C80.5809 18.3646 80.5708 19.1139 80.5505 19.8632C80.5303 20.6124 80.4897 21.3111 80.4289 21.9591C80.3681 22.6273 80.1958 23.326 79.9121 24.055C79.6486 24.784 79.2332 25.4522 78.6657 26.0598C78.0982 26.6875 77.3686 27.1938 76.4769 27.5785C75.5851 27.9633 74.4907 28.1557 73.1936 28.1557ZM90.7398 28.2468C89.1185 28.2468 87.6998 27.9835 86.4838 27.457C85.2881 26.9305 84.295 26.2116 83.5046 25.3004C82.7142 24.3689 82.1264 23.3057 81.7414 22.1109C81.3563 20.9162 81.1638 19.6607 81.1638 18.3444C81.1638 17.0079 81.3968 15.7726 81.863 14.6386C82.3494 13.4843 83.008 12.4819 83.839 11.6314C84.6902 10.7809 85.6833 10.1228 86.8182 9.65701C87.9532 9.171 89.1894 8.928 90.5271 8.928C91.9255 8.928 93.2225 9.171 94.4183 9.65701C95.614 10.143 96.6578 10.8214 97.5495 11.6922C98.4413 12.5629 99.1303 13.5856 99.6167 14.7601C100.123 15.9346 100.377 17.2104 100.377 18.5874C100.377 21.6452 99.5357 24.0246 97.8535 25.7256C96.1714 27.4064 93.8001 28.2468 90.7398 28.2468ZM90.7094 23.326C92.1889 23.326 93.3137 22.9108 94.0839 22.0806C94.8743 21.2503 95.2695 20.0555 95.2695 18.4963C95.2695 17.099 94.8439 15.9751 93.9927 15.1246C93.1415 14.2741 92.0268 13.8488 90.6487 13.8488C89.8177 13.8488 89.0577 14.0716 88.3686 14.5171C87.6796 14.9423 87.1222 15.5195 86.6966 16.2485C86.2913 16.9572 86.0886 17.747 86.0886 18.6178C86.0886 19.3873 86.2406 20.1365 86.5446 20.8656C86.8689 21.5946 87.3756 22.1919 88.0646 22.6577C88.7537 23.1032 89.6353 23.326 90.7094 23.326Z" stroke="url(#paint2_linear_3728_2216)" stroke-width="0.0944652"/>
  <defs>
    <linearGradient id="paint0_linear_3728_2216" x1="-1.78964" y1="1" x2="54.6166" y2="63.676" gradientUnits="userSpaceOnUse">
      <stop stop-color="#FD8B51"/>
      <stop offset="0.540837" stop-color="#469DA3"/>
      <stop offset="1" stop-color="#FD8B51"/>
    </linearGradient>
    <linearGradient id="paint1_linear_3728_2216" x1="-1.78964" y1="1" x2="54.6166" y2="63.676" gradientUnits="userSpaceOnUse">
      <stop stop-color="#FD8B51"/>
      <stop offset="0.540837" stop-color="#469DA3"/>
      <stop offset="1" stop-color="#FD8B51"/>
    </linearGradient>
    <linearGradient id="paint2_linear_3728_2216" x1="72.7583" y1="10.1949" x2="72.7583" y2="22.7999" gradientUnits="userSpaceOnUse">
      <stop stop-color="white" stop-opacity="0"/>
      <stop offset="0.49"/>
      <stop offset="1" stop-color="white" stop-opacity="0"/>
    </linearGradient>
  </defs>
</svg>