<svg xmlns="http://www.w3.org/2000/svg" width="117" height="34" viewBox="0 0 117 34" fill="none">
  <path d="M1.72362 32.3592C1.6536 30.3286 1.61859 28.0413 1.61859 25.4973C1.61859 23.1166 1.6536 20.5959 1.72362 17.9351C1.79364 15.2744 1.91034 12.567 2.07372 9.81286C2.2371 7.05875 2.43549 4.37466 2.66888 1.76059L8.7606 1.86562C8.55054 3.49941 8.36382 5.16822 8.20044 6.87203C8.0604 8.5525 7.9437 10.2446 7.85034 11.9485C8.83062 11.2716 10.0093 10.4897 11.3863 9.6028C12.7867 8.69254 14.2805 7.78228 15.8676 6.87203C17.4547 5.93843 19.0418 5.05152 20.6289 4.21128C22.2394 3.37104 23.7448 2.65918 25.1452 2.07568L26.8607 8.02735C25.437 8.61085 24.0015 9.2527 22.5545 9.9529C21.1307 10.6531 19.7654 11.3533 18.4583 12.0535C17.1746 12.7303 16.031 13.3839 15.0274 14.014C14.0237 14.6209 13.2302 15.1577 12.6467 15.6245C12.0632 16.0679 11.7714 16.3947 11.7714 16.6048C11.7714 16.9082 12.2266 17.4217 13.1368 18.1452C14.0471 18.8687 15.2841 19.7206 16.8479 20.7009C18.4116 21.6812 20.1855 22.7081 22.1694 23.7818C24.1766 24.8554 27.4932 26.3025 30.0139 27.0727L39.383 33.2694C36.7914 33.2694 27.2831 33.5495 17.7931 28.193C15.5758 26.7926 13.592 25.4739 11.8415 24.2369C10.1143 22.9999 8.67891 21.9379 7.53525 21.051C7.53525 21.9146 7.53525 22.7782 7.53525 23.6417C7.53525 25.2055 7.54692 26.7226 7.57026 28.193C7.61694 29.6401 7.66362 30.9938 7.7103 32.2542L1.72362 32.3592Z" fill="white"/>
  <path d="M39.383 33.2694C37.5158 33.2694 35.917 32.4409 34.5166 31.834C33.1396 31.2272 31.9959 30.3986 31.0857 29.3483C30.1754 28.2747 29.4986 27.0494 29.0551 25.6723C28.6116 24.2953 28.3899 22.8482 28.3899 21.3311C28.3899 19.7907 28.6583 18.3669 29.1951 17.0599C29.7553 15.7295 30.5138 14.5742 31.4708 13.5939C32.451 12.6136 33.5947 11.8551 34.9017 11.3183C36.2088 10.7581 37.6325 10.478 39.1729 10.478C40.7834 10.478 42.2771 10.7581 43.6542 11.3183C45.0312 11.8784 46.2333 12.6603 47.2602 13.6639C48.2872 14.6676 49.0807 15.8462 49.6409 17.1999C50.2244 18.5536 50.5161 20.0241 50.5161 21.6112C50.5161 25.1355 49.5475 27.8779 47.6103 29.8385C45.6731 31.7757 42.9073 33.2694 39.383 33.2694ZM39.383 27.0727C41.0868 27.0727 42.3822 26.5942 43.2691 25.6373C44.1793 24.6804 44.6345 23.3033 44.6345 21.5061C44.6345 19.8957 44.1443 18.6003 43.1641 17.6201C42.1838 16.6398 40.9001 16.1496 39.313 16.1496C38.356 16.1496 37.4808 16.4064 36.6872 16.9199C35.8937 17.41 35.2518 18.0752 34.7617 18.9154C34.2949 19.7323 34.0615 20.6426 34.0615 21.6462C34.0615 22.5331 34.2365 23.3967 34.5866 24.2369C34.9601 25.0771 35.5436 25.7657 36.3371 26.3025C37.1307 26.816 38.146 27.0727 39.383 27.0727Z" fill="white"/>
  <path d="M60.5605 32.2988C58.81 32.2988 57.2229 31.8437 55.7992 30.9334C54.3754 30.0465 53.2435 28.8445 52.4032 27.3274C51.5863 25.787 51.1779 24.0715 51.1779 22.181C51.1779 20.4071 51.5046 18.8083 52.1581 17.3846C52.8117 15.9375 53.6986 14.7005 54.8189 13.6736C55.9626 12.6466 57.2579 11.8647 58.705 11.3279C60.1521 10.7677 61.6692 10.4877 63.2563 10.4877C64.5866 10.4877 65.8937 10.6744 67.1774 11.0478C67.2707 10.5577 67.3524 10.0675 67.4224 9.57741L73.4091 10.5927C73.2457 11.0362 73.0824 11.7013 72.919 12.5883C72.7556 13.4752 72.6156 14.4671 72.4989 15.5641C72.4055 16.6611 72.3238 17.758 72.2538 18.855C72.1838 19.952 72.1488 20.9439 72.1488 21.8309C72.1488 22.5544 72.1954 23.2663 72.2888 23.9665C72.4055 24.6433 72.6389 25.2035 72.989 25.6469C73.3391 26.067 73.8759 26.2771 74.5994 26.2771H75.0896L74.2143 32.3688C72.6739 32.3688 71.4019 32.1004 70.3983 31.5636C69.3947 31.0501 68.5894 30.3499 67.9826 29.463C66.979 30.5833 65.8353 31.3302 64.5516 31.7036C63.2679 32.1004 61.9376 32.2988 60.5605 32.2988ZM56.9195 22.8812C57.0362 24.0015 57.4913 24.9001 58.2849 25.5769C59.1018 26.2304 60.1287 26.5572 61.3657 26.5572C62.5561 26.5572 63.548 26.2421 64.3416 25.6119C65.1351 24.9584 65.7887 24.0715 66.3021 22.9512C66.2788 22.5777 66.2671 22.1926 66.2671 21.7958C66.2671 20.979 66.2905 20.1387 66.3371 19.2751C66.3838 18.4116 66.4422 17.5597 66.5122 16.7194C65.5319 16.346 64.5049 16.1593 63.4313 16.1593C62.171 16.1593 61.039 16.416 60.0354 16.9295C59.0551 17.4196 58.2849 18.1081 57.7247 18.9951C57.1646 19.882 56.8845 20.9089 56.8845 22.0759C56.8845 22.216 56.8845 22.356 56.8845 22.496C56.8845 22.6361 56.8961 22.7645 56.9195 22.8812Z" fill="white"/>
  <path d="M86.3458 7.09171C86.2991 6.50822 86.2408 5.80802 86.1707 4.99112C86.1241 4.17423 86.1007 3.39234 86.1007 2.64546C86.1007 2.38872 86.1007 2.13199 86.1007 1.87525C86.1241 1.59517 86.1474 1.36177 86.1707 1.17505L92.2275 1C92.2275 1.18672 92.2275 1.56016 92.2275 2.12031C92.2508 2.68047 92.2625 3.29898 92.2625 3.97584C92.2858 4.65269 92.3092 5.2712 92.3325 5.83136C92.3558 6.36818 92.3675 6.72994 92.3675 6.91666L86.3458 7.09171ZM84.1402 32.2988C81.5261 32.2988 79.3788 31.4352 77.6984 29.7081C76.0179 27.9809 74.8859 25.5069 74.3024 22.286L80.2191 20.5355C80.2191 21.1657 80.2891 21.8309 80.4291 22.5311C80.5925 23.2313 80.8376 23.8964 81.1643 24.5266C81.4911 25.1568 81.8996 25.6703 82.3897 26.067C82.8798 26.4405 83.44 26.6272 84.0702 26.6272C84.9337 26.6272 85.5639 26.4171 85.9607 25.997C86.3808 25.5769 86.6376 24.865 86.7309 23.8614C86.7776 23.3246 86.8126 22.7178 86.8359 22.0409C86.8593 21.3407 86.8709 20.6172 86.8709 19.8703C86.8709 18.68 86.8476 17.4896 86.8009 16.2993C86.7542 15.0856 86.6959 13.977 86.6259 12.9734C86.5559 11.9698 86.4625 11.1995 86.3458 10.6627L92.4725 10.4877C92.4959 10.9311 92.5192 11.6547 92.5425 12.6583C92.5659 13.6386 92.5892 14.7822 92.6126 16.0892C92.6359 17.3963 92.6476 18.75 92.6476 20.1504C92.6476 21.014 92.6359 21.8775 92.6126 22.7411C92.5892 23.6047 92.5425 24.4099 92.4725 25.1568C92.4025 25.927 92.2041 26.7322 91.8774 27.5725C91.5739 28.4127 91.0955 29.1829 90.442 29.8831C89.7884 30.6067 88.9482 31.1902 87.9212 31.6336C86.8943 32.0771 85.6339 32.2988 84.1402 32.2988Z" fill="white"/>
  <path d="M104.347 32.4038C102.48 32.4038 100.846 32.1004 99.4455 31.4936C98.0685 30.8867 96.9248 30.0582 96.0145 29.0079C95.1043 27.9342 94.4274 26.7089 93.984 25.3318C93.5405 23.9548 93.3188 22.5077 93.3188 20.9906C93.3188 19.4502 93.5872 18.0265 94.124 16.7194C94.6842 15.389 95.4427 14.2337 96.3996 13.2534C97.3799 12.2732 98.5236 11.5146 99.8306 10.9778C101.138 10.4176 102.561 10.1376 104.102 10.1376C105.712 10.1376 107.206 10.4176 108.583 10.9778C109.96 11.538 111.162 12.3198 112.189 13.3235C113.216 14.3271 114.01 15.5057 114.57 16.8595C115.153 18.2132 115.445 19.6836 115.445 21.2707C115.445 24.795 114.476 27.5375 112.539 29.498C110.602 31.4352 107.871 32.4038 104.347 32.4038ZM104.312 26.7322C106.016 26.7322 107.311 26.2538 108.198 25.2968C109.108 24.3399 109.563 22.9628 109.563 21.1657C109.563 19.5552 109.073 18.2599 108.093 17.2796C107.113 16.2993 105.829 15.8092 104.242 15.8092C103.285 15.8092 102.41 16.0659 101.616 16.5794C100.823 17.0695 100.181 17.7347 99.6906 18.5749C99.2238 19.3918 98.9904 20.3021 98.9904 21.3057C98.9904 22.1926 99.1654 23.0562 99.5155 23.8964C99.889 24.7367 100.472 25.4252 101.266 25.962C102.06 26.4755 103.075 26.7322 104.312 26.7322Z" fill="white"/>
  <path d="M39.383 33.2694L30.0139 27.0727C27.4932 26.3025 24.1766 24.8554 22.1694 23.7818C20.1855 22.7081 18.4116 21.6812 16.8479 20.7009C15.2841 19.7206 14.0471 18.8687 13.1368 18.1452C12.2266 17.4217 11.7714 16.9082 11.7714 16.6048C11.7714 16.3947 12.0632 16.0679 12.6467 15.6245C13.2302 15.1577 14.0237 14.6209 15.0274 14.014C16.031 13.3839 17.1746 12.7303 18.4583 12.0535C19.7654 11.3533 21.1307 10.6531 22.5545 9.9529C24.0015 9.2527 25.437 8.61085 26.8607 8.02735L25.1452 2.07568C23.7448 2.65918 22.2394 3.37104 20.6289 4.21128C19.0418 5.05152 17.4547 5.93843 15.8676 6.87203C14.2805 7.78228 12.7867 8.69254 11.3863 9.6028C10.0093 10.4897 8.83062 11.2716 7.85034 11.9485C7.9437 10.2446 8.0604 8.5525 8.20044 6.87203C8.36382 5.16822 8.55054 3.49941 8.7606 1.86562L2.66888 1.76059C2.43549 4.37466 2.2371 7.05875 2.07372 9.81286C1.91034 12.567 1.79364 15.2744 1.72362 17.9351C1.6536 20.5959 1.61859 23.1166 1.61859 25.4973C1.61859 28.0413 1.6536 30.3286 1.72362 32.3592L7.7103 32.2542C7.66362 30.9938 7.61694 29.6401 7.57026 28.193C7.54692 26.7226 7.53525 25.2055 7.53525 23.6417C7.53525 22.7782 7.53525 21.9146 7.53525 21.051C8.67891 21.9379 10.1143 22.9999 11.8415 24.2369C13.592 25.4739 15.5758 26.7926 17.7931 28.193C27.2831 33.5495 36.7914 33.2694 39.383 33.2694ZM39.383 33.2694C37.5158 33.2694 35.917 32.4409 34.5166 31.834C33.1396 31.2272 31.9959 30.3986 31.0857 29.3483C30.1754 28.2747 29.4985 27.0494 29.0551 25.6723C28.6116 24.2953 28.3899 22.8482 28.3899 21.3311C28.3899 19.7907 28.6583 18.3669 29.1951 17.0599C29.7553 15.7295 30.5138 14.5742 31.4708 13.5939C32.451 12.6136 33.5947 11.8551 34.9017 11.3183C36.2088 10.7581 37.6325 10.478 39.1729 10.478C40.7834 10.478 42.2771 10.7581 43.6542 11.3183C45.0312 11.8784 46.2333 12.6603 47.2602 13.6639C48.2872 14.6676 49.0807 15.8462 49.6409 17.1999C50.2244 18.5536 50.5161 20.0241 50.5161 21.6112C50.5161 25.1355 49.5475 27.8779 47.6103 29.8385C45.6731 31.7757 42.9073 33.2694 39.383 33.2694ZM1.73219 1.88738C1.34778 10.5214 0.695489 28.4689 1.16156 31.1866M8.57212 10.2534C12.4482 7.60198 21.8264 2.51115 24.9491 1.40312M51.6819 16.5548C52.9852 13.5214 57.7488 8.56672 65.8042 10.3868M55.0166 31.0447C56.9266 32.64 62.0744 34.6039 67.656 30.775M77.9367 30.9436C79.8466 32.539 85.4192 35.0556 90.6097 30.7414M110.664 11.5647C114.809 13.5196 119.697 22.8221 112.45 30.5068M28.2558 21.1378C27.6447 16.5952 32.1895 7.92347 42.2771 10.2511M42.1739 33.074C46.6566 31.9617 48.713 30.4726 50.5667 25.7876M81.0377 20.934C81.3073 22.8552 82.2174 25.9897 84.1722 26.1245C85.116 26.1245 86.599 26.4279 86.1608 17.9005C85.9586 13.9571 85.8238 11.9011 85.7564 11.5977M39.383 27.0727C41.0868 27.0727 42.3822 26.5942 43.2691 25.6373C44.1793 24.6804 44.6345 23.3033 44.6345 21.5061C44.6345 19.8957 44.1443 18.6003 43.1641 17.62C42.1838 16.6398 40.9001 16.1496 39.313 16.1496C38.356 16.1496 37.4808 16.4064 36.6872 16.9199C35.8937 17.41 35.2518 18.0752 34.7617 18.9154C34.2949 19.7323 34.0615 20.6426 34.0615 21.6462C34.0615 22.5331 34.2365 23.3967 34.5866 24.2369C34.9601 25.0771 35.5436 25.7657 36.3371 26.3025C37.1307 26.816 38.146 27.0727 39.383 27.0727ZM60.5605 32.2988C58.81 32.2988 57.2229 31.8437 55.7992 30.9334C54.3754 30.0465 53.2435 28.8445 52.4032 27.3274C51.5863 25.787 51.1779 24.0715 51.1779 22.181C51.1779 20.4071 51.5046 18.8083 52.1581 17.3846C52.8117 15.9375 53.6986 14.7005 54.8189 13.6736C55.9626 12.6466 57.2579 11.8647 58.705 11.3279C60.1521 10.7677 61.6692 10.4877 63.2563 10.4877C64.5866 10.4877 65.8937 10.6744 67.1774 11.0478C67.2707 10.5577 67.3524 10.0675 67.4224 9.57741L73.4091 10.5927C73.2457 11.0362 73.0824 11.7013 72.919 12.5883C72.7556 13.4752 72.6156 14.4671 72.4989 15.5641C72.4055 16.6611 72.3238 17.758 72.2538 18.855C72.1838 19.952 72.1488 20.9439 72.1488 21.8309C72.1488 22.5544 72.1954 23.2663 72.2888 23.9665C72.4055 24.6433 72.6389 25.2035 72.989 25.6469C73.3391 26.067 73.8759 26.2771 74.5995 26.2771H75.0896L74.2143 32.3688C72.6739 32.3688 71.4019 32.1004 70.3983 31.5636C69.3947 31.0501 68.5894 30.3499 67.9826 29.463C66.979 30.5833 65.8353 31.3302 64.5516 31.7036C63.2679 32.1004 61.9376 32.2988 60.5605 32.2988ZM56.9195 22.8812C57.0362 24.0015 57.4913 24.9001 58.2849 25.5769C59.1018 26.2304 60.1287 26.5572 61.3657 26.5572C62.5561 26.5572 63.548 26.2421 64.3416 25.6119C65.1351 24.9584 65.7886 24.0715 66.3021 22.9512C66.2788 22.5777 66.2671 22.1926 66.2671 21.7958C66.2671 20.979 66.2905 20.1387 66.3371 19.2751C66.3838 18.4116 66.4422 17.5597 66.5122 16.7194C65.5319 16.346 64.5049 16.1593 63.4313 16.1593C62.171 16.1593 61.039 16.416 60.0354 16.9295C59.0551 17.4196 58.2849 18.1081 57.7247 18.9951C57.1646 19.882 56.8845 20.9089 56.8845 22.0759C56.8845 22.216 56.8845 22.356 56.8845 22.496C56.8845 22.6361 56.8961 22.7645 56.9195 22.8812ZM86.3458 7.09171C86.2991 6.50822 86.2408 5.80802 86.1707 4.99112C86.1241 4.17423 86.1007 3.39234 86.1007 2.64546C86.1007 2.38872 86.1007 2.13199 86.1007 1.87525C86.1241 1.59517 86.1474 1.36177 86.1707 1.17505L92.2275 1C92.2275 1.18672 92.2275 1.56016 92.2275 2.12031C92.2508 2.68047 92.2625 3.29898 92.2625 3.97584C92.2858 4.65269 92.3091 5.2712 92.3325 5.83136C92.3558 6.36818 92.3675 6.72994 92.3675 6.91666L86.3458 7.09171ZM84.1402 32.2988C81.5261 32.2988 79.3788 31.4352 77.6984 29.7081C76.0179 27.9809 74.8859 25.5069 74.3024 22.286L80.2191 20.5355C80.2191 21.1657 80.2891 21.8309 80.4291 22.5311C80.5925 23.2313 80.8376 23.8964 81.1643 24.5266C81.4911 25.1568 81.8996 25.6703 82.3897 26.067C82.8798 26.4405 83.44 26.6272 84.0702 26.6272C84.9337 26.6272 85.5639 26.4171 85.9607 25.997C86.3808 25.5769 86.6376 24.865 86.7309 23.8614C86.7776 23.3246 86.8126 22.7178 86.8359 22.0409C86.8593 21.3407 86.871 20.6172 86.871 19.8703C86.871 18.68 86.8476 17.4896 86.8009 16.2993C86.7542 15.0856 86.6959 13.977 86.6259 12.9734C86.5559 11.9698 86.4625 11.1995 86.3458 10.6627L92.4725 10.4877C92.4959 10.9311 92.5192 11.6547 92.5425 12.6583C92.5659 13.6386 92.5892 14.7822 92.6126 16.0892C92.6359 17.3963 92.6476 18.75 92.6476 20.1504C92.6476 21.014 92.6359 21.8775 92.6126 22.7411C92.5892 23.6047 92.5425 24.4099 92.4725 25.1568C92.4025 25.927 92.2041 26.7322 91.8774 27.5725C91.5739 28.4127 91.0955 29.1829 90.442 29.8831C89.7884 30.6067 88.9482 31.1902 87.9212 31.6336C86.8943 32.0771 85.6339 32.2988 84.1402 32.2988ZM104.347 32.4038C102.48 32.4038 100.846 32.1004 99.4455 31.4936C98.0685 30.8867 96.9248 30.0582 96.0145 29.0079C95.1043 27.9342 94.4274 26.7089 93.984 25.3318C93.5405 23.9548 93.3188 22.5077 93.3188 20.9906C93.3188 19.4502 93.5872 18.0265 94.124 16.7194C94.6842 15.389 95.4427 14.2337 96.3996 13.2534C97.3799 12.2732 98.5236 11.5146 99.8306 10.9778C101.138 10.4176 102.561 10.1376 104.102 10.1376C105.712 10.1376 107.206 10.4176 108.583 10.9778C109.96 11.538 111.162 12.3198 112.189 13.3235C113.216 14.3271 114.01 15.5057 114.57 16.8595C115.153 18.2132 115.445 19.6836 115.445 21.2707C115.445 24.795 114.476 27.5375 112.539 29.498C110.602 31.4352 107.871 32.4038 104.347 32.4038ZM104.312 26.7322C106.016 26.7322 107.311 26.2538 108.198 25.2968C109.108 24.3399 109.563 22.9628 109.563 21.1657C109.563 19.5552 109.073 18.2599 108.093 17.2796C107.113 16.2993 105.829 15.8092 104.242 15.8092C103.285 15.8092 102.41 16.0659 101.616 16.5794C100.823 17.0695 100.181 17.7347 99.6906 18.5749C99.2238 19.3918 98.9904 20.3021 98.9904 21.3057C98.9904 22.1926 99.1654 23.0562 99.5155 23.8964C99.889 24.7367 100.472 25.4252 101.266 25.962C102.06 26.4755 103.075 26.7322 104.312 26.7322Z" stroke="url(#paint0_linear_3747_2061)" stroke-width="0.10073"/>
  <defs>
    <linearGradient id="paint0_linear_3747_2061" x1="83.6388" y1="11.5977" x2="83.6388" y2="26.1259" gradientUnits="userSpaceOnUse">
      <stop stop-color="white" stop-opacity="0"/>
      <stop offset="0.49"/>
      <stop offset="1" stop-color="white" stop-opacity="0"/>
    </linearGradient>
  </defs>
</svg>