<svg xmlns="http://www.w3.org/2000/svg" width="58" height="50" viewBox="0 0 58 50" fill="none">
  <path d="M41.9461 14.9685C48.2174 24.892 42.8741 37.1725 31.4304 39.178C28.9516 39.6125 26.41 39.479 24.0062 38.5566C23.0562 38.192 22.2485 38.2624 21.4012 38.8015C20.5909 39.317 19.7265 39.748 18.8827 40.2102C18.3522 40.5009 17.795 40.7298 17.2373 40.3145C16.6313 39.8632 16.5077 39.224 16.6673 38.515C16.8507 37.7004 16.9852 36.8695 17.2403 36.0777C17.5774 35.031 17.3375 34.2444 16.6521 33.3621C11.8585 27.1915 12.3749 18.3495 17.7849 12.8069C24.5879 5.83733 36.3003 6.85012 41.9461 14.9685ZM36.4908 26.5497C36.8614 26.5148 37.2519 26.543 37.599 26.4336C38.847 26.0404 39.5722 25.118 39.6471 23.8587C39.7164 22.6911 39.0962 21.7961 38.0152 21.2637C36.9002 20.7146 35.8803 20.9443 34.9995 21.7203C33.3049 23.2133 33.9713 25.6258 36.4908 26.5497ZM23.8742 23.7573C23.6634 21.9137 22.2999 20.724 20.7235 21.0082C19.323 21.2606 18.1893 22.6201 18.2914 23.9245C18.3956 25.256 19.5885 26.4583 20.901 26.5547C22.3665 26.6623 23.5525 25.6249 23.8742 23.7573ZM30.6569 21.5681C28.8893 20.6105 27.0958 21.0715 26.4412 22.6517C25.8048 24.1879 26.566 25.8474 28.1649 26.4096C29.2698 26.7981 30.5748 26.3506 31.2526 25.3509C31.9957 24.2548 31.8322 22.9318 30.6569 21.5681Z" fill="#E7854D"/>
  <path opacity="0.12" d="M34.0062 47.4365C33.3376 48.3237 32.4908 48.5803 31.5185 48.5741C29.8013 48.5631 28.0837 48.5906 26.3669 48.5617C24.3909 48.5285 23.602 47.5905 23.6201 45.3689C23.636 43.4139 24.3988 42.5893 26.3721 42.6637C30.5414 42.821 34.5544 42.3491 38.2518 40.2199C41.9738 38.0765 44.7119 35.0545 46.3816 31.1096C47.1714 29.2436 47.0593 27.167 47.5034 25.2159C49.2768 17.4247 42.6997 6.68841 31.7506 5.07149C21.9855 3.62942 12.0239 10.1464 10.2841 20.9429C9.91687 23.2216 10.5578 25.4308 10.8409 27.6614C11.1088 29.7723 11.4469 31.8742 11.7202 33.9845C11.8735 35.1674 11.2332 35.862 10.1845 36.2754C7.09315 37.4938 4.50637 36.7222 2.59836 34.0002C-0.35182 29.7915 -0.28279 23.1273 2.74902 19.6519C3.68148 18.583 4.80018 17.7794 6.20929 17.5156C7.09633 17.3495 7.52354 16.9035 7.83673 16.0494C11.1509 7.01155 19.8052 1.07551 29.3681 1.22189C38.6159 1.36344 46.817 7.20537 50.122 16.0744C50.4755 17.0232 50.912 17.4522 51.9562 17.5769C53.5211 17.7639 54.7049 18.7292 55.6219 20.004C58.6653 24.2349 57.9808 31.7309 54.2155 35.3295C52.7734 36.7077 51.0838 37.2898 49.1531 36.6309C48.1053 36.2733 47.5115 36.5408 46.8549 37.4045C44.0712 41.0666 40.5095 43.723 36.0963 45.0855C34.8409 45.4731 34.219 46.13 34.0062 47.4365Z" fill="#E7854D"/>
</svg>