<svg xmlns="http://www.w3.org/2000/svg" width="23" height="23" viewBox="0 0 23 23" fill="none">
  <path fill-rule="evenodd" clip-rule="evenodd" d="M11 6.53125C7.97969 6.53125 5.53125 8.97969 5.53125 12C5.53125 15.0203 7.97969 17.4687 11 17.4687C14.0203 17.4687 16.4687 15.0203 16.4687 12C16.4687 8.97969 14.0203 6.53125 11 6.53125ZM3.96875 12C3.96875 8.11675 7.11675 4.96875 11 4.96875C14.8833 4.96875 18.0312 8.11675 18.0312 12C18.0312 15.8833 14.8833 19.0312 11 19.0312C7.11675 19.0312 3.96875 15.8833 3.96875 12Z" fill="#E7854D"/>
  <path fill-rule="evenodd" clip-rule="evenodd" d="M11 9.65625C9.70558 9.65625 8.65625 10.7056 8.65625 12C8.65625 13.2944 9.70558 14.3437 11 14.3437C12.2944 14.3437 13.3437 13.2944 13.3437 12C13.3437 10.7056 12.2944 9.65625 11 9.65625ZM7.09375 12C7.09375 9.84264 8.84264 8.09375 11 8.09375C13.1574 8.09375 14.9062 9.84264 14.9062 12C14.9062 14.1574 13.1574 15.9062 11 15.9062C8.84264 15.9062 7.09375 14.1574 7.09375 12Z" fill="#E7854D"/>
  <path fill-rule="evenodd" clip-rule="evenodd" d="M11 3.40625C6.2538 3.40625 2.40625 7.2538 2.40625 12C2.40625 15.3731 4.34945 18.2937 7.18101 19.7009C7.5674 19.8929 7.72497 20.3618 7.53295 20.7482C7.34093 21.1346 6.87204 21.2921 6.48565 21.1001C3.14339 19.4392 0.84375 15.9889 0.84375 12C0.84375 6.39086 5.39086 1.84375 11 1.84375C16.6091 1.84375 21.1562 6.39086 21.1562 12C21.1562 17.6091 16.6091 22.1562 11 22.1562C10.5685 22.1562 10.2187 21.8065 10.2187 21.375C10.2187 20.9435 10.5685 20.5937 11 20.5937C15.7462 20.5937 19.5937 16.7462 19.5937 12C19.5937 7.2538 15.7462 3.40625 11 3.40625Z" fill="#E7854D"/>
  <path fill-rule="evenodd" clip-rule="evenodd" d="M19.3333 0.802124C19.7648 0.802124 20.1146 1.1519 20.1146 1.58337V2.88546H21.4167C21.8481 2.88546 22.1979 3.23523 22.1979 3.66671C22.1979 4.09818 21.8481 4.44796 21.4167 4.44796H19.6569L11.5524 12.5525C11.2473 12.8576 10.7527 12.8576 10.4476 12.5525C10.1425 12.2474 10.1425 11.7527 10.4476 11.4476L18.5521 3.3431V1.58337C18.5521 1.1519 18.9019 0.802124 19.3333 0.802124Z" fill="#E7854D"/>
</svg>