<svg xmlns="http://www.w3.org/2000/svg" width="17" height="17" viewBox="0 0 17 17" fill="none">
  <path d="M14.9773 7.42461H9.57738V2.02457C9.57738 1.65205 9.27494 1.34961 8.9023 1.34961C8.52978 1.34961 8.22734 1.65205 8.22734 2.02457V7.42461H2.8273C2.45478 7.42461 2.15234 7.72705 2.15234 8.09957C2.15234 8.47221 2.45478 8.77465 2.8273 8.77465H8.22734V14.1746C8.22734 14.5472 8.52978 14.8496 8.9023 14.8496C9.27494 14.8496 9.57738 14.5472 9.57738 14.1746V8.77465H14.9773C15.3499 8.77465 15.6524 8.47221 15.6524 8.09957C15.6524 7.72705 15.3499 7.42461 14.9773 7.42461Z" fill="#E7854D"/>
</svg>