<svg width="19" height="19" viewBox="0 0 19 19" fill="none" xmlns="http://www.w3.org/2000/svg">
<g clip-path="url(#clip0_3724_11286)">
<g clip-path="url(#clip1_3724_11286)">
<g clip-path="url(#clip2_3724_11286)">
<path d="M9.15499 0.57959H0.920615C0.630666 0.57959 0.482372 0.92735 0.683099 1.13659L9.29705 10.1157H17.5276C17.8163 10.1157 17.9651 9.77069 17.7671 9.5607L9.39447 0.682905C9.33227 0.616966 9.24564 0.57959 9.15499 0.57959Z" fill="#1A1C1E"/>
</g>
</g>
</g>
<g clip-path="url(#clip3_3724_11286)">
<g clip-path="url(#clip4_3724_11286)">
<g clip-path="url(#clip5_3724_11286)">
<path d="M9.29705 9.36377H0.920615C0.630666 9.36377 0.482372 9.71153 0.683099 9.92077L9.19989 18.7986C9.26196 18.8633 9.34773 18.8999 9.43739 18.8999H17.5276C17.8163 18.8999 17.9651 18.5549 17.7671 18.3449L9.29705 9.36377Z" fill="#E7854D"/>
</g>
</g>
</g>
<defs>
<clipPath id="clip0_3724_11286">
<rect width="17.7735" height="9.87418" fill="white" transform="translate(0.329102 0.57373)"/>
</clipPath>
<clipPath id="clip1_3724_11286">
<rect width="17.7735" height="9.87418" fill="white" transform="translate(0.329102 0.57373)"/>
</clipPath>
<clipPath id="clip2_3724_11286">
<rect width="17.7735" height="9.87418" fill="white" transform="translate(0.329102 0.57373)"/>
</clipPath>
<clipPath id="clip3_3724_11286">
<rect width="17.7735" height="9.87418" fill="white" transform="translate(0.329102 9.03711)"/>
</clipPath>
<clipPath id="clip4_3724_11286">
<rect width="17.7735" height="9.87418" fill="white" transform="translate(0.329102 9.03711)"/>
</clipPath>
<clipPath id="clip5_3724_11286">
<rect width="17.7735" height="9.87418" fill="white" transform="translate(0.329102 9.03711)"/>
</clipPath>
</defs>
</svg>
