<svg xmlns="http://www.w3.org/2000/svg" width="24" height="16" viewBox="0 0 24 16" fill="none">
  <path fill-rule="evenodd" clip-rule="evenodd" d="M5.93406 1.50267C6.27592 1.16081 6.73959 0.96875 7.22306 0.96875H11.9999C12.4314 0.96875 12.7812 1.31853 12.7812 1.75C12.7812 2.18147 12.4314 2.53125 11.9999 2.53125H7.22306C7.15399 2.53125 7.08775 2.55869 7.03892 2.60752L5.56578 4.08066C5.22391 4.42253 4.76025 4.61458 4.27678 4.61458H2.62492C2.48109 4.61458 2.3645 4.73118 2.3645 4.875V5.39583C2.3645 5.82731 2.01472 6.17708 1.58325 6.17708C1.15178 6.17708 0.802002 5.82731 0.802002 5.39583V4.875C0.802002 3.86823 1.61815 3.05208 2.62492 3.05208H4.27678C4.34585 3.05208 4.41208 3.02465 4.46092 2.97581L5.93406 1.50267ZM11.4475 6.46909C11.1424 6.164 11.1424 5.66934 11.4475 5.36424C11.7526 5.05914 12.2472 5.05914 12.5523 5.36424L18.8023 11.6142C19.1074 11.9193 19.1074 12.414 18.8023 12.7191L17.0241 14.4973C16.6822 14.8392 16.2186 15.0312 15.7351 15.0312H9.30639C8.82292 15.0312 8.35926 14.8392 8.01739 14.4973L5.50259 11.9825C5.45375 11.9337 5.38751 11.9062 5.31845 11.9062H2.62492C1.61815 11.9062 0.802002 11.0901 0.802002 10.0833V9.5625C0.802002 9.13103 1.15178 8.78125 1.58325 8.78125C2.01472 8.78125 2.3645 9.13103 2.3645 9.5625V10.0833C2.3645 10.2272 2.48109 10.3437 2.62492 10.3437H5.31845C5.80191 10.3437 6.26558 10.5358 6.60744 10.8777L9.12225 13.3925C9.17109 13.4413 9.23732 13.4687 9.30639 13.4687H15.7351C15.8042 13.4687 15.8704 13.4413 15.9193 13.3925L17.1451 12.1667L11.4475 6.46909Z" fill="#E7854D"/>
  <path fill-rule="evenodd" clip-rule="evenodd" d="M11.4476 1.19757C11.5941 1.05106 11.7928 0.96875 12 0.96875H14.6935C15.177 0.96875 15.6407 1.16081 15.9825 1.50267L17.4557 2.97581C17.5045 3.02465 17.5707 3.05208 17.6398 3.05208H21.375C22.3818 3.05208 23.1979 3.86823 23.1979 4.875V10.0833C23.1979 11.0901 22.3818 11.9062 21.375 11.9062H17.2083C16.7769 11.9062 16.4271 11.5565 16.4271 11.125C16.4271 10.6935 16.7769 10.3437 17.2083 10.3437H21.375C21.5188 10.3437 21.6354 10.2272 21.6354 10.0833V4.875C21.6354 4.73118 21.5188 4.61458 21.375 4.61458H17.6398C17.1563 4.61458 16.6927 4.42253 16.3508 4.08066L14.8777 2.60752C14.8288 2.55869 14.7626 2.53125 14.6935 2.53125H12.3236L9.94825 4.90659C9.67806 5.17679 9.67806 5.61487 9.94826 5.88507C10.2185 6.15527 10.6565 6.15527 10.9267 5.88507L13.0101 3.80174C13.3152 3.49664 13.8098 3.49664 14.1149 3.80174C14.42 4.10684 14.42 4.6015 14.1149 4.90659L12.0316 6.98993C11.1512 7.87032 9.72379 7.87032 8.8434 6.98993C7.96301 6.10953 7.96301 4.68213 8.8434 3.80174L11.4476 1.19757Z" fill="#E7854D"/>
</svg>