<svg width="17" height="18" viewBox="0 0 17 18" fill="none" xmlns="http://www.w3.org/2000/svg">
<g clip-path="url(#clip0_3724_11286)">
<g clip-path="url(#clip1_3724_11286)">
<g clip-path="url(#clip2_3724_11286)">
<path d="M8.22084 17.2715L15.9306 9.56175H0.510986L8.22084 17.2715Z" fill="#1A1C1E"/>
</g>
</g>
</g>
<g clip-path="url(#clip3_3724_11286)">
<g clip-path="url(#clip4_3724_11286)">
<g clip-path="url(#clip5_3724_11286)">
<path d="M8.22084 8.95752L15.9306 1.2478H0.510986L8.22084 8.95752Z" fill="#E7854D"/>
</g>
</g>
</g>
<defs>
<clipPath id="clip0_3724_11286">
<rect width="16.3206" height="8.46358" fill="white" transform="matrix(1 0 0 -1 0.0563965 17.7207)"/>
</clipPath>
<clipPath id="clip1_3724_11286">
<rect width="16.3206" height="8.46358" fill="white" transform="matrix(1 0 0 -1 0.0563965 17.7202)"/>
</clipPath>
<clipPath id="clip2_3724_11286">
<rect width="16.3226" height="8.46358" fill="white" transform="matrix(1 0 0 -1 0.0563965 17.7207)"/>
</clipPath>
<clipPath id="clip3_3724_11286">
<rect width="16.3206" height="8.46358" fill="white" transform="matrix(1 0 0 -1 0.0563965 9.25684)"/>
</clipPath>
<clipPath id="clip4_3724_11286">
<rect width="16.3206" height="8.46358" fill="white" transform="matrix(1 0 0 -1 0.0563965 9.25684)"/>
</clipPath>
<clipPath id="clip5_3724_11286">
<rect width="16.3226" height="8.46358" fill="white" transform="matrix(1 0 0 -1 0.0563965 9.25684)"/>
</clipPath>
</defs>
</svg>
