<svg xmlns="http://www.w3.org/2000/svg" width="44" height="52" viewBox="0 0 44 52" fill="none">
  <g clip-path="url(#clip0_3772_43514)">
    <path opacity="0.12" d="M20.4219 1.04535C22.1244 0.251443 23.4916 0.744821 24.7285 1.89667C27.3888 4.3741 30.4732 6.05352 34.0253 6.87976C35.5698 7.23901 37.1474 7.31988 38.7061 7.55365C41.5369 7.97823 43.4805 9.84214 43.5576 12.6837C43.7146 18.4717 43.8644 24.2676 42.6801 30.0034C40.7012 39.5884 35.0812 46.0729 26.2561 50.1338C23.0884 51.5914 20.3804 51.4066 17.3518 49.9304C12.034 47.3384 7.53652 43.9183 4.54942 38.7146C2.63815 35.3851 1.58221 31.7778 0.975068 28.0091C0.173659 23.0344 0.353858 18.025 0.420932 13.0239C0.464357 9.78603 2.68427 7.65079 6.14857 7.42294C11.2727 7.08591 15.7393 5.26914 19.4885 1.7336C19.7499 1.48704 20.0629 1.29513 20.4219 1.04535ZM9.59474 24.8144C8.80222 32.6874 15.3468 38.4751 21.8008 38.5383C28.1847 38.6009 34.4787 33.5583 34.5202 26.0231C34.5584 19.1063 28.8865 13.5614 21.9664 13.5833C15.6025 13.6034 10.1758 18.454 9.59474 24.8144Z" fill="#E7854D"/>
    <path d="M26.6174 34.6421C19.7079 38.0144 12.1454 33.2966 12.2551 25.7582C12.3255 20.917 16.3501 16.6622 21.1966 16.3051C26.2541 15.9325 30.7944 19.4545 31.5756 24.3563C32.26 28.6501 30.5203 32.2941 26.6174 34.6421ZM19.3503 31.3534C20.0305 31.6708 20.489 31.2495 20.9154 30.8417C21.8422 29.9552 22.7427 29.041 23.6508 28.1351C24.9314 26.8575 26.231 25.5979 27.4809 24.2909C28.3883 23.3419 28.0841 22.1154 26.916 21.8393C26.1874 21.6671 25.7466 22.1767 25.311 22.6074C23.7913 24.1103 22.2924 25.6341 20.7884 27.1528C19.7902 28.1609 19.7938 28.1616 18.7526 27.1301C18.496 26.8759 18.2501 26.6009 17.9575 26.3947C17.3388 25.9587 16.71 25.9919 16.1707 26.5332C15.6227 27.0834 15.5768 27.7302 16.1069 28.2949C17.0946 29.347 18.0514 30.4364 19.3503 31.3534Z" fill="#E7854D"/>
  </g>
  <defs>
    <clipPath id="clip0_3772_43514">
      <rect width="44" height="51" fill="white" transform="translate(0 0.5)"/>
    </clipPath>
  </defs>
</svg>