<svg width="23" height="20" viewBox="0 0 23 20" fill="none" xmlns="http://www.w3.org/2000/svg">
<g clip-path="url(#clip0_3724_11286)">
<g clip-path="url(#clip1_3724_11286)">
<g clip-path="url(#clip2_3724_11286)">
<path d="M1.41431 3.06399C1.41431 1.5727 2.62323 0.36377 4.11452 0.36377H8.72026C10.2115 0.36377 11.4205 1.5727 11.4205 3.06399V10.37H4.11452C2.62323 10.37 1.41431 9.16101 1.41431 7.66974V3.06399Z" fill="#1A1C1E"/>
</g>
</g>
</g>
<g clip-path="url(#clip3_3724_11286)">
<g clip-path="url(#clip4_3724_11286)">
<g clip-path="url(#clip5_3724_11286)">
<path d="M12.464 9.56445H19.3133C20.7114 9.56445 21.8447 10.6978 21.8447 12.0959V16.4138C21.8447 17.8119 20.7114 18.9452 19.3133 18.9452H14.9954C13.5974 18.9452 12.464 17.8119 12.464 16.4138V9.56445Z" fill="#E7854D"/>
</g>
</g>
</g>
<defs>
<clipPath id="clip0_3724_11286">
<rect width="10.7985" height="10.1258" fill="white" transform="translate(0.956665 0.364258)"/>
</clipPath>
<clipPath id="clip1_3724_11286">
<rect width="10.7985" height="10.1258" fill="white" transform="translate(0.956665 0.364258)"/>
</clipPath>
<clipPath id="clip2_3724_11286">
<rect width="10.8009" height="10.1258" fill="white" transform="translate(0.955078 0.364258)"/>
</clipPath>
<clipPath id="clip3_3724_11286">
<rect width="10.1258" height="10.1258" fill="white" transform="translate(12.1448 9.04346)"/>
</clipPath>
<clipPath id="clip4_3724_11286">
<rect width="10.1258" height="10.1258" fill="white" transform="translate(12.1448 9.04346)"/>
</clipPath>
<clipPath id="clip5_3724_11286">
<rect width="10.1258" height="10.1258" fill="white" transform="translate(12.1448 9.04346)"/>
</clipPath>
</defs>
</svg>
