<svg xmlns="http://www.w3.org/2000/svg" width="44" height="44" viewBox="0 0 44 44" fill="none">
  <g clip-path="url(#clip0_3772_43524)">
    <path opacity="0.12" d="M24.9235 0.938274C25.7883 1.35015 25.8184 2.15288 25.9518 2.85722C26.0924 3.59967 26.4435 3.97474 27.1971 4.14389C28.5949 4.4576 29.891 5.07073 31.1238 5.79139C31.5895 6.0636 31.967 6.11011 32.3909 5.76713C32.5597 5.63058 32.7612 5.53318 32.9519 5.42514C34.1966 4.71991 34.6033 4.78356 35.6089 5.80347C36.5327 6.74038 37.478 7.65618 38.3931 8.60142C39.0949 9.3264 39.2224 9.84253 38.6278 10.6506C37.8522 11.7047 37.8988 12.6059 38.5828 13.683C39.2121 14.6736 39.5803 15.818 39.8592 16.9642C39.9959 17.5266 40.2856 17.812 40.8316 17.9099C41.235 17.9822 41.6384 18.0684 42.0305 18.1859C42.7115 18.3902 43.0774 18.8501 43.0767 19.5793C43.0751 21.1419 43.0682 22.7046 43.0807 24.2671C43.0876 25.1227 42.6508 25.6601 41.8492 25.7491C40.544 25.894 39.8292 26.4868 39.5666 27.8289C39.3306 29.035 38.708 30.1362 38.0821 31.2012C37.8411 31.6113 37.8694 31.9232 38.111 32.327C39.3104 34.3323 39.3027 34.343 37.6891 36.0082C36.9262 36.7955 36.1532 37.5734 35.3701 38.3406C34.6169 39.0786 34.0989 39.2176 33.2535 38.6126C32.2286 37.8792 31.3711 37.8354 30.2944 38.546C29.3197 39.1892 28.1658 39.5522 27.0154 39.8237C26.4378 39.96 26.151 40.2556 26.0055 40.8396C25.4493 43.0714 25.4308 43.0675 23.1657 43.0712C22.0143 43.0731 20.8628 43.0812 19.7115 43.069C18.7778 43.0592 18.2688 42.741 18.1618 41.8268C18.0022 40.464 17.3411 39.7698 15.9932 39.5286C15.322 39.4085 14.6184 39.1646 14.0874 38.6813C14.0795 38.3585 14.304 38.214 14.4726 38.0447C16.0778 36.4323 17.6917 34.8285 19.2934 33.2127C19.6026 32.9008 19.9093 32.7368 20.3803 32.8073C26.1418 33.6701 31.6287 29.801 32.7468 24.1044C33.9843 17.7995 29.6577 11.8215 23.2617 10.9987C17.5345 10.262 11.9742 14.468 11.1316 20.1471C10.9651 21.2697 10.9231 22.3765 11.1184 23.4943C11.1758 23.8228 11.1692 24.1451 10.9008 24.4125C9.13373 26.1732 7.37204 27.9392 5.60449 29.6994C5.53298 29.7706 5.42032 29.8005 5.2477 29.8913C4.66738 29.0174 4.36089 28.0542 4.12481 27.0867C3.95474 26.3898 3.5749 26.0661 2.91487 25.96C2.67267 25.9211 2.43645 25.8453 2.19716 25.7878C1.19219 25.546 0.853367 25.1453 0.846768 24.1371C0.83726 22.6842 0.837983 21.2312 0.846252 19.7783C0.851907 18.7849 1.13342 18.2743 2.10743 18.1606C3.49929 17.9981 4.10283 17.2786 4.39287 15.9741C4.64106 14.8578 5.15942 13.8054 5.77533 12.8262C6.07121 12.3559 6.12376 11.9288 5.7618 11.4776C5.64273 11.3291 5.55764 11.1532 5.45905 10.9886C4.70721 9.7335 4.75123 9.37588 5.78623 8.34231C6.69792 7.43189 7.60447 6.51621 8.52431 5.61409C9.33326 4.82072 9.80657 4.68196 10.6983 5.30621C11.7205 6.0218 12.5586 6.07928 13.6335 5.35641C14.5991 4.70706 15.761 4.34853 16.9121 4.07929C17.4918 3.94369 17.8178 3.65088 17.9229 3.06355C18.4116 0.331386 19.076 0.838008 20.8391 0.839514C22.1795 0.84066 23.5233 0.738784 24.9235 0.938274Z" fill="#E7854D"/>
    <path d="M25.1469 30.1169C23.3353 30.7298 21.5567 30.9181 19.7638 30.3859C19.1868 30.2146 18.862 30.4304 18.4866 30.808C14.8929 34.4225 11.2817 38.0193 7.68213 41.6279C6.5432 42.7697 5.24507 43.3766 3.60648 42.9322C1.01941 42.2305 -0.033376 39.1309 1.61696 37.014C2.05265 36.4552 2.57372 35.9602 3.0765 35.4568C6.38775 32.1413 9.6938 28.8205 13.0314 25.5316C13.5434 25.0271 13.6663 24.5756 13.4983 23.8803C12.1934 18.4789 16.3324 13.2297 21.8897 13.2095C22.6008 13.2069 23.3096 13.3013 23.9996 13.484C25.2689 13.8201 25.6059 14.8787 24.7131 15.8391C23.8368 16.7818 22.8848 17.6539 21.9999 18.589C21.2834 19.3462 21.1596 20.3636 21.6026 21.2537C22.0428 22.1381 22.9792 22.6527 23.9712 22.5477C24.6006 22.4811 25.1029 22.1635 25.5406 21.7268C26.3552 20.9139 27.1605 20.0914 27.9859 19.2896C29.028 18.2773 30.0956 18.5995 30.4472 20.019C31.4734 24.1619 29.1631 28.6029 25.1469 30.1169Z" fill="#E7854D"/>
  </g>
  <defs>
    <clipPath id="clip0_3772_43524">
      <rect width="44" height="44" fill="white"/>
    </clipPath>
  </defs>
</svg>