<svg xmlns="http://www.w3.org/2000/svg" width="22" height="22" viewBox="0 0 22 22" fill="none">
  <path fill-rule="evenodd" clip-rule="evenodd" d="M0.25 5.5C0.25 2.60051 2.6005 0.25 5.5 0.25H16.5C19.3995 0.25 21.75 2.6005 21.75 5.5V16.5C21.75 19.3995 19.3995 21.75 16.5 21.75H5.5C2.60051 21.75 0.25 19.3995 0.25 16.5V16C0.25 15.5858 0.585786 15.25 1 15.25C1.41421 15.25 1.75 15.5858 1.75 16V16.5C1.75 18.5711 3.42893 20.25 5.5 20.25H16.5C18.5711 20.25 20.25 18.5711 20.25 16.5V5.5C20.25 3.42893 18.5711 1.75 16.5 1.75H5.5C3.42893 1.75 1.75 3.42893 1.75 5.5V12C1.75 12.4142 1.41421 12.75 1 12.75C0.585786 12.75 0.25 12.4142 0.25 12V5.5Z" fill="black"/>
  <path fill-rule="evenodd" clip-rule="evenodd" d="M11 6.75C8.65279 6.75 6.75 8.65279 6.75 11C6.75 13.3472 8.65279 15.25 11 15.25C13.3472 15.25 15.25 13.3472 15.25 11C15.25 8.65279 13.3472 6.75 11 6.75ZM5.25 11C5.25 7.82436 7.82436 5.25 11 5.25C14.1756 5.25 16.75 7.82436 16.75 11C16.75 14.1756 14.1756 16.75 11 16.75C7.82436 16.75 5.25 14.1756 5.25 11Z" fill="black"/>
  <path fill-rule="evenodd" clip-rule="evenodd" d="M17 4.75C16.8619 4.75 16.75 4.86193 16.75 5C16.75 5.13807 16.8619 5.25 17 5.25C17.1381 5.25 17.25 5.13807 17.25 5C17.25 4.86193 17.1381 4.75 17 4.75ZM15.25 5C15.25 4.0335 16.0335 3.25 17 3.25C17.9665 3.25 18.75 4.0335 18.75 5C18.75 5.9665 17.9665 6.75 17 6.75C16.0335 6.75 15.25 5.9665 15.25 5Z" fill="black"/>
</svg>