<svg xmlns="http://www.w3.org/2000/svg" width="20" height="20" viewBox="0 0 20 20" fill="none">
  <path fill-rule="evenodd" clip-rule="evenodd" d="M10 1.75C5.44367 1.75 1.75002 5.44365 1.75002 10C1.75002 11.6246 2.21885 13.1374 3.0283 14.4132C3.1491 14.6036 3.17783 14.8383 3.10652 15.0522L2.18587 17.8141L4.94782 16.8935C5.16174 16.8222 5.39639 16.8509 5.58679 16.9717C6.86259 17.7812 8.37541 18.25 10 18.25C14.5564 18.25 18.25 14.5563 18.25 10C18.25 7.14033 16.7957 4.62005 14.5828 3.13881C14.2386 2.9084 14.1464 2.44257 14.3768 2.09835C14.6072 1.75414 15.073 1.66188 15.4172 1.89229C18.0283 3.64009 19.75 6.61883 19.75 10C19.75 15.3848 15.3848 19.75 10 19.75C8.21184 19.75 6.53426 19.268 5.09231 18.4265L1.23719 19.7115C0.96769 19.8013 0.670564 19.7312 0.46969 19.5303C0.268816 19.3295 0.198674 19.0323 0.288508 18.7628L1.57355 14.9077C0.732071 13.4658 0.25002 11.7882 0.25002 10C0.25002 4.61522 4.61524 0.25 10 0.25C10.4142 0.25 10.75 0.585786 10.75 1C10.75 1.41421 10.4142 1.75 10 1.75Z" fill="black"/>
  <path fill-rule="evenodd" clip-rule="evenodd" d="M6.25029 5.17663C6.9337 4.49321 8.04174 4.49321 8.72516 5.17663L9.98029 6.43176C10.2732 6.72465 10.2732 7.19953 9.98029 7.49242L9.00906 8.46365C8.97028 8.50244 8.95002 8.54665 8.94365 8.58309C8.93775 8.61683 8.94353 8.64083 8.95418 8.65991C9.51286 9.66045 10.3394 10.487 11.34 11.0457C11.359 11.0563 11.383 11.0621 11.4168 11.0562C11.4532 11.0498 11.4974 11.0296 11.5362 10.9908L12.5074 10.0196C12.6481 9.87892 12.8389 9.7999 13.0378 9.7999C13.2367 9.7999 13.4275 9.87892 13.5681 10.0196L14.8232 11.2747C15.5067 11.9581 15.5067 13.0662 14.8232 13.7496L13.4491 15.1237C12.8766 15.6962 12.0298 15.8961 11.2617 15.6401L11.4989 14.9286L11.2617 15.6401L11.0481 15.5689C7.9239 14.5275 5.47235 12.076 4.43095 8.95179L4.35975 8.73818L5.06448 8.50327L4.35975 8.73818C4.10372 7.9701 4.30363 7.12328 4.87612 6.55079L6.25029 5.17663ZM7.6645 6.23729C7.56687 6.13965 7.40858 6.13965 7.31095 6.23729L5.93678 7.61145C5.76603 7.7822 5.70641 8.03476 5.78277 8.26384L5.85398 8.47745C6.74607 11.1537 8.84614 13.2538 11.5224 14.1459L11.2853 14.8574L11.5224 14.1459L11.736 14.2171C11.9651 14.2935 12.2177 14.2338 12.3884 14.0631L13.7626 12.6889C13.8602 12.5913 13.8602 12.433 13.7626 12.3354L13.0378 11.6106L12.5969 12.0515C12.1008 12.5475 11.298 12.7403 10.6087 12.3554C9.36548 11.6612 8.33868 10.6344 7.64452 9.3912C7.25959 8.70184 7.45233 7.89906 7.9484 7.40299L8.3893 6.96209L7.6645 6.23729Z" fill="black"/>
</svg>