<svg xmlns="http://www.w3.org/2000/svg" width="22" height="22" viewBox="0 0 22 22" fill="none">
  <path fill-rule="evenodd" clip-rule="evenodd" d="M3 1.75C2.30964 1.75 1.75 2.30964 1.75 3C1.75 3.69036 2.30964 4.25 3 4.25C3.69036 4.25 4.25 3.69036 4.25 3C4.25 2.30964 3.69036 1.75 3 1.75ZM0.25 3C0.25 1.48122 1.48122 0.25 3 0.25C4.51878 0.25 5.75 1.48122 5.75 3C5.75 4.51878 4.51878 5.75 3 5.75C1.48122 5.75 0.25 4.51878 0.25 3Z" fill="black"/>
  <path fill-rule="evenodd" clip-rule="evenodd" d="M0.25 8C0.25 7.58579 0.585786 7.25 1 7.25H5C5.41421 7.25 5.75 7.58579 5.75 8V21C5.75 21.4142 5.41421 21.75 5 21.75H1C0.585786 21.75 0.25 21.4142 0.25 21V14C0.25 13.5858 0.585786 13.25 1 13.25C1.41421 13.25 1.75 13.5858 1.75 14V20.25H4.25V8.75H1.75V10C1.75 10.4142 1.41421 10.75 1 10.75C0.585786 10.75 0.25 10.4142 0.25 10V8Z" fill="black"/>
  <path fill-rule="evenodd" clip-rule="evenodd" d="M7.25 8C7.25 7.58579 7.58579 7.25 8 7.25H12C12.4124 7.25 12.7474 7.58293 12.75 7.9953L12.7556 8.89802L13.5447 8.2387C14.3091 7.59994 15.2736 7.25 16.2698 7.25H16.5C19.3995 7.25 21.75 9.60051 21.75 12.5V21C21.75 21.4142 21.4142 21.75 21 21.75H17C16.5858 21.75 16.25 21.4142 16.25 21V15C16.25 14.0335 15.4665 13.25 14.5 13.25C13.5335 13.25 12.75 14.0335 12.75 15V21C12.75 21.4142 12.4142 21.75 12 21.75H8C7.58579 21.75 7.25 21.4142 7.25 21V8ZM8.75 8.75V20.25H11.25V15C11.25 13.2051 12.7051 11.75 14.5 11.75C16.2949 11.75 17.75 13.2051 17.75 15V20.25H20.25V12.5C20.25 10.4289 18.5711 8.75 16.5 8.75H16.2698C15.6252 8.75 15.0011 8.97643 14.5065 9.38975L12.4965 11.0693C12.2737 11.2554 11.9635 11.2963 11.7001 11.1741C11.4367 11.052 11.2675 10.7888 11.2656 10.4984L11.2547 8.75H8.75Z" fill="black"/>
</svg>