<svg xmlns="http://www.w3.org/2000/svg" width="22" height="22" viewBox="0 0 22 22" fill="none">
  <path fill-rule="evenodd" clip-rule="evenodd" d="M3 1.75C2.30964 1.75 1.75 2.30964 1.75 3V19C1.75 19.6904 2.30964 20.25 3 20.25H11C11.4142 20.25 11.75 20.5858 11.75 21C11.75 21.4142 11.4142 21.75 11 21.75H3C1.48122 21.75 0.25 20.5188 0.25 19V3C0.25 1.48122 1.48122 0.25 3 0.25H4.5C4.91421 0.25 5.25 0.585786 5.25 1C5.25 1.41421 4.91421 1.75 4.5 1.75H3ZM7.75 1C7.75 0.585786 8.08579 0.25 8.5 0.25H19C20.5188 0.25 21.75 1.48122 21.75 3V19C21.75 20.5188 20.5188 21.75 19 21.75H15C14.5858 21.75 14.25 21.4142 14.25 21C14.25 20.5858 14.5858 20.25 15 20.25H19C19.6904 20.25 20.25 19.6904 20.25 19V3C20.25 2.30964 19.6904 1.75 19 1.75H8.5C8.08579 1.75 7.75 1.41421 7.75 1Z" fill="black"/>
  <path fill-rule="evenodd" clip-rule="evenodd" d="M10.25 7C10.25 4.65279 12.1528 2.75 14.5 2.75H18C18.4142 2.75 18.75 3.08579 18.75 3.5V7C18.75 7.41421 18.4142 7.75 18 7.75H16.5C16.0858 7.75 15.75 8.08579 15.75 8.5V9.25H18C18.2353 9.25 18.457 9.36047 18.5988 9.54835C18.7405 9.73624 18.7858 9.97975 18.7211 10.206L17.7211 13.706C17.6291 14.028 17.3349 14.25 17 14.25H15.75V21C15.75 21.4142 15.4142 21.75 15 21.75C14.5858 21.75 14.25 21.4142 14.25 21V13.5C14.25 13.0858 14.5858 12.75 15 12.75H16.4343L17.0057 10.75H15C14.5858 10.75 14.25 10.4142 14.25 10V8.5C14.25 7.25736 15.2574 6.25 16.5 6.25H17.25V4.25H14.5C12.9812 4.25 11.75 5.48122 11.75 7V10C11.75 10.4142 11.4142 10.75 11 10.75H9.25V12.75H11C11.4142 12.75 11.75 13.0858 11.75 13.5V21C11.75 21.4142 11.4142 21.75 11 21.75C10.5858 21.75 10.25 21.4142 10.25 21V14.25H8.5C8.08579 14.25 7.75 13.9142 7.75 13.5V10C7.75 9.58579 8.08579 9.25 8.5 9.25H10.25V7Z" fill="black"/>
</svg>