<svg xmlns="http://www.w3.org/2000/svg" width="24" height="24" viewBox="0 0 24 24" fill="none">
  <path fill-rule="evenodd" clip-rule="evenodd" d="M6.19141 1.08311C6.33985 0.904989 6.55973 0.802002 6.79159 0.802002H17.2083C17.4401 0.802002 17.66 0.904989 17.8084 1.08311L23.0168 7.33311C23.2442 7.60609 23.2589 7.99819 23.0523 8.28734L12.6357 22.8707C12.489 23.076 12.2522 23.1978 11.9999 23.1978C11.7476 23.1978 11.5108 23.076 11.3642 22.8707L4.66776 13.4957C4.41697 13.1446 4.4983 12.6566 4.8494 12.4059C5.2005 12.1551 5.68843 12.2364 5.93922 12.5875L11.9999 21.0725L21.4303 7.87L16.8423 2.3645H7.15751L2.56959 7.87L3.26065 8.83749C3.51144 9.1886 3.43012 9.67653 3.07901 9.92731C2.72791 10.1781 2.23998 10.0968 1.98919 9.74568L0.947524 8.28734C0.740988 7.99819 0.755598 7.60609 0.983081 7.33311L6.19141 1.08311Z" fill="#E7854D"/>
  <path fill-rule="evenodd" clip-rule="evenodd" d="M0.802002 7.83325C0.802002 7.40178 1.15178 7.052 1.58325 7.052H22.4166C22.8481 7.052 23.1978 7.40178 23.1978 7.83325C23.1978 8.26472 22.8481 8.6145 22.4166 8.6145H1.58325C1.15178 8.6145 0.802002 8.26472 0.802002 7.83325Z" fill="#E7854D"/>
  <path fill-rule="evenodd" clip-rule="evenodd" d="M6.54466 0.842061C6.95399 0.705617 7.39643 0.926836 7.53287 1.33617L9.01977 5.79685L11.3013 1.23383C11.4336 0.969159 11.7041 0.80197 12 0.80197C12.296 0.80197 12.5665 0.969159 12.6988 1.23383L14.9803 5.79685L16.4672 1.33617C16.6037 0.926836 17.0461 0.705617 17.4554 0.842061C17.8648 0.978504 18.086 1.42094 17.9495 1.83027L15.8662 8.08027C15.7663 8.38004 15.4956 8.5901 15.1804 8.6125C14.8652 8.6349 14.5676 8.46523 14.4263 8.18261L12 3.33015L9.57382 8.18261C9.43251 8.46523 9.13486 8.6349 8.81967 8.6125C8.50448 8.5901 8.23381 8.38004 8.13389 8.08027L6.05056 1.83027C5.91411 1.42094 6.13533 0.978504 6.54466 0.842061Z" fill="#E7854D"/>
  <path fill-rule="evenodd" clip-rule="evenodd" d="M8.71122 7.06926C9.13312 6.97886 9.54842 7.24758 9.63883 7.66947L11.9999 18.6879L14.361 7.66947C14.4514 7.24758 14.8667 6.97886 15.2886 7.06926C15.7105 7.15967 15.9792 7.57497 15.8888 7.99686L12.7638 22.5802C12.6866 22.9404 12.3683 23.1978 11.9999 23.1978C11.6315 23.1978 11.3132 22.9404 11.236 22.5802L8.11101 7.99686C8.0206 7.57497 8.28933 7.15967 8.71122 7.06926Z" fill="#E7854D"/>
</svg>