<svg xmlns="http://www.w3.org/2000/svg" width="24" height="24" viewBox="0 0 24 24" fill="none">
  <path fill-rule="evenodd" clip-rule="evenodd" d="M0.802002 2.62492C0.802002 1.61815 1.61815 0.802002 2.62492 0.802002H7.83325C8.26472 0.802002 8.6145 1.15178 8.6145 1.58325C8.6145 2.01472 8.26472 2.3645 7.83325 2.3645H2.62492C2.48109 2.3645 2.3645 2.48109 2.3645 2.62492V7.83325C2.3645 8.26472 2.01472 8.6145 1.58325 8.6145C1.15178 8.6145 0.802002 8.26472 0.802002 7.83325V2.62492ZM15.3853 1.58325C15.3853 1.15178 15.7351 0.802002 16.1666 0.802002H21.3749C22.3817 0.802002 23.1978 1.61815 23.1978 2.62492V7.83325C23.1978 8.26472 22.8481 8.6145 22.4166 8.6145C21.9851 8.6145 21.6353 8.26472 21.6353 7.83325V2.62492C21.6353 2.48109 21.5187 2.3645 21.3749 2.3645H16.1666C15.7351 2.3645 15.3853 2.01472 15.3853 1.58325ZM1.58325 15.3853C2.01472 15.3853 2.3645 15.7351 2.3645 16.1666V21.3749C2.3645 21.5187 2.48109 21.6353 2.62492 21.6353H7.83325C8.26472 21.6353 8.6145 21.9851 8.6145 22.4166C8.6145 22.8481 8.26472 23.1978 7.83325 23.1978H2.62492C1.61815 23.1978 0.802002 22.3817 0.802002 21.3749V16.1666C0.802002 15.7351 1.15178 15.3853 1.58325 15.3853ZM22.4166 15.3853C22.8481 15.3853 23.1978 15.7351 23.1978 16.1666V21.3749C23.1978 22.3817 22.3817 23.1978 21.3749 23.1978H16.1666C15.7351 23.1978 15.3853 22.8481 15.3853 22.4166C15.3853 21.9851 15.7351 21.6353 16.1666 21.6353H21.3749C21.5187 21.6353 21.6353 21.5187 21.6353 21.3749V16.1666C21.6353 15.7351 21.9851 15.3853 22.4166 15.3853Z" fill="#E7854D"/>
  <path fill-rule="evenodd" clip-rule="evenodd" d="M15.96 9.07967C12.2992 7.61885 8.00202 8.26561 4.90653 11.0172L3.80094 11.9999L4.90653 12.9827C8.95193 16.5786 15.0481 16.5786 19.0935 12.9827L20.1991 11.9999L19.0935 11.0172C18.771 10.7305 18.7419 10.2367 19.0286 9.91422C19.3152 9.59173 19.8091 9.56268 20.1315 9.84934L21.894 11.416C22.0608 11.5643 22.1562 11.7768 22.1562 11.9999C22.1562 12.2231 22.0608 12.4356 21.894 12.5838L20.1315 14.1505C15.4941 18.2726 8.50587 18.2726 3.86846 14.1505L2.10597 12.5838C1.93918 12.4356 1.84375 12.2231 1.84375 11.9999C1.84375 11.7768 1.93918 11.5643 2.10597 11.416L3.86846 9.84934C7.41825 6.69397 12.3445 5.95461 16.5391 7.62845C16.9398 7.78836 17.135 8.24287 16.9751 8.64361C16.8152 9.04435 16.3607 9.23958 15.96 9.07967Z" fill="#E7854D"/>
  <path fill-rule="evenodd" clip-rule="evenodd" d="M11.9999 8.6145C10.1302 8.6145 8.6145 10.1302 8.6145 11.9999C8.6145 13.8696 10.1302 15.3853 11.9999 15.3853C13.8696 15.3853 15.3853 13.8696 15.3853 11.9999C15.3853 10.1302 13.8696 8.6145 11.9999 8.6145ZM7.052 11.9999C7.052 9.26726 9.26726 7.052 11.9999 7.052C14.7326 7.052 16.9478 9.26726 16.9478 11.9999C16.9478 14.7326 14.7326 16.9478 11.9999 16.9478C9.26726 16.9478 7.052 14.7326 7.052 11.9999Z" fill="#E7854D"/>
</svg>