<svg width="1410" height="788" viewBox="0 0 1410 788" fill="none" xmlns="http://www.w3.org/2000/svg">
<rect x="-2.5" y="-83.499" width="108" height="109.362" stroke="white" stroke-opacity="0.04"/>
<rect x="-2.5" y="26.8624" width="108" height="106.637" stroke="white" stroke-opacity="0.03"/>
<rect x="-2.5" y="134.5" width="108" height="108" stroke="white" stroke-opacity="0.03"/>
<rect x="-3" y="242.999" width="109" height="107.637" fill="white" fill-opacity="0.01"/>
<rect x="-2.5" y="243.499" width="108" height="106.637" stroke="white" stroke-opacity="0.02"/>
<rect x="-2.5" y="351.137" width="108" height="109.362" stroke="white" stroke-opacity="0.02"/>
<rect x="-2.5" y="461.499" width="108" height="108" stroke="white" stroke-opacity="0.01"/>
<rect x="-2.5" y="570.5" width="108" height="106.637" stroke="white" stroke-opacity="0.01"/>
<rect x="106.5" y="-83.499" width="109.362" height="109.362" stroke="white" stroke-opacity="0.04"/>
<rect x="106.5" y="26.8623" width="109.362" height="106.637" stroke="white" stroke-opacity="0.03"/>
<rect x="106" y="134" width="110.362" height="109" fill="white" fill-opacity="0.03"/>
<rect x="106.5" y="134.5" width="109.362" height="108" stroke="white" stroke-opacity="0.02"/>
<rect x="106.5" y="243.499" width="109.362" height="106.637" stroke="white" stroke-opacity="0.02"/>
<rect x="106" y="350.637" width="110.362" height="110.362" fill="white" fill-opacity="0.03"/>
<rect x="106.5" y="351.137" width="109.362" height="109.362" stroke="white" stroke-opacity="0.02"/>
<rect x="106.5" y="461.499" width="109.362" height="108" stroke="white" stroke-opacity="0.01"/>
<rect x="106.5" y="570.5" width="109.362" height="106.637" stroke="white" stroke-opacity="0.01"/>
<rect x="216.862" y="-83.499" width="106.637" height="109.362" stroke="white" stroke-opacity="0.04"/>
<rect x="216.862" y="26.8623" width="106.637" height="106.637" stroke="white" stroke-opacity="0.03"/>
<rect x="216.862" y="134.5" width="106.637" height="108" stroke="white" stroke-opacity="0.02"/>
<rect x="216.862" y="243.499" width="106.637" height="106.637" stroke="white" stroke-opacity="0.02"/>
<rect x="216.862" y="351.137" width="106.637" height="109.362" stroke="white" stroke-opacity="0.01"/>
<rect x="216.862" y="461.499" width="106.637" height="108" stroke="white" stroke-opacity="0.01"/>
<rect x="216.862" y="570.5" width="106.637" height="106.637" stroke="white" stroke-opacity="0.01"/>
<rect x="324.499" y="-83.499" width="108" height="109.362" stroke="white" stroke-opacity="0.04"/>
<rect x="324.499" y="26.8623" width="108" height="106.637" stroke="white" stroke-opacity="0.03"/>
<rect x="323.999" y="134" width="109" height="109" fill="white" fill-opacity="0.03"/>
<rect x="324.499" y="134.5" width="108" height="108" stroke="white" stroke-opacity="0.02"/>
<rect x="323.999" y="242.999" width="109" height="107.637" fill="white" fill-opacity="0.01"/>
<rect x="324.499" y="243.499" width="108" height="106.637" stroke="white" stroke-opacity="0.02"/>
<rect x="324.499" y="351.137" width="108" height="109.362" stroke="white" stroke-opacity="0.01"/>
<rect x="323.999" y="460.999" width="109" height="109" fill="white" fill-opacity="0.01"/>
<rect x="324.499" y="461.499" width="108" height="108" stroke="white" stroke-opacity="0.01"/>
<rect x="432.999" y="-83.999" width="110.362" height="110.362" fill="white" fill-opacity="0.02"/>
<rect x="433.499" y="-83.499" width="109.362" height="109.362" stroke="white" stroke-opacity="0.03"/>
<rect x="433.499" y="26.8624" width="109.362" height="106.637" stroke="white" stroke-opacity="0.03"/>
<rect x="433.499" y="134.5" width="109.362" height="108" stroke="white" stroke-opacity="0.02"/>
<rect x="433.499" y="243.499" width="109.362" height="106.637" stroke="white" stroke-opacity="0.02"/>
<rect x="433.499" y="351.137" width="109.362" height="109.362" stroke="white" stroke-opacity="0.01"/>
<rect x="432.999" y="460.999" width="110.362" height="109" fill="white" fill-opacity="0.01"/>
<rect x="433.499" y="461.499" width="109.362" height="108" stroke="white" stroke-opacity="0.01"/>
<rect x="543.861" y="-83.499" width="106.637" height="109.362" stroke="white" stroke-opacity="0.03"/>
<rect x="543.861" y="26.8623" width="106.637" height="106.637" stroke="white" stroke-opacity="0.03"/>
<rect x="543.361" y="134" width="107.637" height="109" fill="white" fill-opacity="0.01"/>
<rect x="543.861" y="134.5" width="106.637" height="108" stroke="white" stroke-opacity="0.02"/>
<rect x="543.861" y="243.499" width="106.637" height="106.637" stroke="white" stroke-opacity="0.02"/>
<rect x="543.861" y="351.137" width="106.637" height="109.362" stroke="white" stroke-opacity="0.01"/>
<rect x="543.861" y="461.499" width="106.637" height="108" stroke="white" stroke-opacity="0.01"/>
<rect x="543.361" y="570" width="107.637" height="107.637" fill="white" fill-opacity="0.01"/>
<rect x="543.361" y="677.638" width="107.637" height="110.362" fill="white" fill-opacity="0.01"/>
<rect x="651.499" y="-83.499" width="108" height="109.362" stroke="white" stroke-opacity="0.03"/>
<rect x="651.499" y="26.8623" width="108" height="106.637" stroke="white" stroke-opacity="0.03"/>
<rect x="651.499" y="134.5" width="108" height="108" stroke="white" stroke-opacity="0.02"/>
<rect x="651.499" y="243.499" width="108" height="106.637" stroke="white" stroke-opacity="0.02"/>
<rect x="651.499" y="351.137" width="108" height="109.362" stroke="white" stroke-opacity="0.01"/>
<rect x="651.499" y="461.499" width="108" height="108" stroke="white" stroke-opacity="0.01"/>
<rect x="650.999" y="677.638" width="109" height="110.362" fill="white" fill-opacity="0.01"/>
<rect x="760" y="-83.999" width="107.637" height="110.362" fill="white" fill-opacity="0.01"/>
<rect x="760.5" y="-83.499" width="106.637" height="109.362" stroke="white" stroke-opacity="0.03"/>
<rect x="760" y="26.3623" width="107.637" height="107.637" fill="white" fill-opacity="0.01"/>
<rect x="760.5" y="26.8623" width="106.637" height="106.637" stroke="white" stroke-opacity="0.03"/>
<rect x="760.5" y="134.5" width="106.637" height="108" stroke="white" stroke-opacity="0.02"/>
<rect x="760" y="242.999" width="107.637" height="107.637" fill="white" fill-opacity="0.03"/>
<rect x="760.5" y="243.499" width="106.637" height="106.637" stroke="white" stroke-opacity="0.02"/>
<rect x="760.5" y="351.137" width="106.637" height="109.362" stroke="white" stroke-opacity="0.01"/>
<rect x="760.5" y="461.499" width="106.637" height="108" stroke="white" stroke-opacity="0.01"/>
<rect x="760.5" y="678.138" width="106.637" height="109.362" stroke="white" stroke-opacity="0.02"/>
<rect x="868.137" y="-83.499" width="109.362" height="109.362" stroke="white" stroke-opacity="0.03"/>
<rect x="868.137" y="26.8623" width="109.362" height="106.637" stroke="white" stroke-opacity="0.03"/>
<rect x="868.137" y="134.5" width="109.362" height="108" stroke="white" stroke-opacity="0.02"/>
<rect x="868.137" y="243.499" width="109.362" height="106.637" stroke="white" stroke-opacity="0.02"/>
<rect x="868.137" y="351.137" width="109.362" height="109.362" stroke="white" stroke-opacity="0.01"/>
<rect x="868.137" y="461.499" width="109.362" height="108" stroke="white" stroke-opacity="0.01"/>
<rect x="978.5" y="-83.499" width="108" height="109.362" stroke="white" stroke-opacity="0.03"/>
<rect x="978" y="26.3624" width="109" height="107.637" fill="white" fill-opacity="0.03"/>
<rect x="978.5" y="26.8624" width="108" height="106.637" stroke="white" stroke-opacity="0.03"/>
<g opacity="0.1">
<rect x="978" y="134" width="109" height="109" fill="white" fill-opacity="0.03"/>
<rect x="978.5" y="134.5" width="108" height="108" stroke="white" stroke-opacity="0.02"/>
</g>
<rect x="978.5" y="243.499" width="108" height="106.637" stroke="white" stroke-opacity="0.02"/>
<rect x="978.5" y="351.137" width="108" height="109.362" stroke="white" stroke-opacity="0.01"/>
<rect x="978.5" y="461.499" width="108" height="108" stroke="white" stroke-opacity="0.01"/>
<rect x="1087.5" y="-83.499" width="106.637" height="109.362" stroke="white" stroke-opacity="0.03"/>
<rect x="1087.5" y="26.8624" width="106.637" height="106.637" stroke="white" stroke-opacity="0.03"/>
<rect x="1087.5" y="134.5" width="106.637" height="108" stroke="white" stroke-opacity="0.02"/>
<rect x="1087" y="242.999" width="107.637" height="107.637" fill="white" fill-opacity="0.01"/>
<rect x="1087.5" y="243.499" width="106.637" height="106.637" stroke="white" stroke-opacity="0.02"/>
<rect x="1087.5" y="351.137" width="106.637" height="109.362" stroke="white" stroke-opacity="0.01"/>
<rect x="1087.5" y="461.499" width="106.637" height="108" stroke="white" stroke-opacity="0.01"/>
<rect x="1195.14" y="-83.499" width="109.362" height="109.362" stroke="white" stroke-opacity="0.03"/>
<rect x="1195.14" y="26.8623" width="109.362" height="106.637" stroke="white" stroke-opacity="0.03"/>
<rect x="1195.14" y="134.5" width="109.362" height="108" stroke="white" stroke-opacity="0.02"/>
<rect x="1195.14" y="243.499" width="109.362" height="106.637" stroke="white" stroke-opacity="0.02"/>
<rect x="1195.14" y="351.137" width="109.362" height="109.362" stroke="white" stroke-opacity="0.01"/>
<rect x="1195.14" y="461.499" width="109.362" height="108" stroke="white" stroke-opacity="0.01"/>
<rect x="1305.5" y="-83.499" width="108" height="109.362" stroke="white" stroke-opacity="0.03"/>
<rect x="1305.5" y="26.8624" width="108" height="106.637" stroke="white" stroke-opacity="0.03"/>
<rect x="1305.5" y="134.5" width="108" height="108" stroke="white" stroke-opacity="0.02"/>
<rect x="1305.5" y="243.499" width="108" height="106.637" stroke="white" stroke-opacity="0.02"/>
<rect x="1305.5" y="351.137" width="108" height="109.362" stroke="white" stroke-opacity="0.01"/>
<rect x="1305.5" y="461.499" width="108" height="108" stroke="white" stroke-opacity="0.01"/>
</svg>
